<svg width="24" height="24" viewBox="0 0 24 24" fill="none" xmlns="http://www.w3.org/2000/svg">
    <path d="M21.6674 10.0987C21.1401 10.7037 20.414 11.1004 19.62 11.2172C18.826 11.3341 18.0164 11.1635 17.3371 10.7362C17.3341 10.7351 17.3308 10.7351 17.3278 10.7362L10.7324 17.3325V17.34C10.9997 17.7704 11.1665 18.2555 11.2207 18.7593C11.2749 19.263 11.2149 19.7725 11.0453 20.2499C10.8757 20.7273 10.6008 21.1604 10.241 21.5171C9.88114 21.8737 9.44563 22.1448 8.96673 22.3102C8.48783 22.4756 7.97785 22.531 7.4746 22.4724C6.97135 22.4138 6.48776 22.2426 6.05969 21.9716C5.63163 21.7006 5.27007 21.3367 5.00184 20.9069C4.73361 20.477 4.56559 19.9923 4.51025 19.4887C4.00664 19.4334 3.52194 19.2654 3.09212 18.9971C2.6623 18.7289 2.29838 18.3674 2.02737 17.9393C1.75635 17.5112 1.58518 17.0276 1.52657 16.5244C1.46795 16.0211 1.52339 15.5111 1.68877 15.0322C1.85415 14.5534 2.12523 14.1178 2.4819 13.758C2.83857 13.3982 3.27167 13.1233 3.74909 12.9536C4.22651 12.784 4.73598 12.7241 5.23973 12.7783C5.74347 12.8324 6.22856 12.9993 6.659 13.2665C6.66202 13.2677 6.66536 13.2677 6.66838 13.2665L13.2637 6.67029V6.66279C12.9965 6.23234 12.8296 5.74726 12.7754 5.24351C12.7212 4.73977 12.7812 4.23029 12.9508 3.75287C13.1204 3.27546 13.3953 2.84235 13.7552 2.48568C14.115 2.12902 14.5505 1.85794 15.0294 1.69256C15.5083 1.52718 16.0183 1.47174 16.5215 1.53035C17.0248 1.58897 17.5084 1.76013 17.9364 2.03115C18.3645 2.30217 18.7261 2.66608 18.9943 3.09591C19.2625 3.52573 19.4305 4.01042 19.4859 4.51404C20.1014 4.57883 20.6873 4.81166 21.1795 5.18705C21.6716 5.56244 22.051 6.06594 22.2762 6.64248C22.5014 7.21901 22.5638 7.84638 22.4564 8.45595C22.349 9.06553 22.0761 9.63384 21.6674 10.0987Z" fill="#FCFCFC"/>
</svg>
