<svg width="24" height="25" viewBox="0 0 24 25" fill="none" xmlns="http://www.w3.org/2000/svg">
    <path d="M12 10.5C14.2091 10.5 16 8.70914 16 6.5C16 4.29086 14.2091 2.5 12 2.5C9.79086 2.5 8 4.29086 8 6.5C8 8.70914 9.79086 10.5 12 10.5ZM5.5 13.5C6.88071 13.5 8 12.3807 8 11C8 9.61929 6.88071 8.5 5.5 8.5C4.11929 8.5 3 9.61929 3 11C3 12.3807 4.11929 13.5 5.5 13.5ZM21 11C21 12.3807 19.8807 13.5 18.5 13.5C17.1193 13.5 16 12.3807 16 11C16 9.61929 17.1193 8.5 18.5 8.5C19.8807 8.5 21 9.61929 21 11ZM12 11.5C14.7614 11.5 17 13.7386 17 16.5V22.5H7V16.5C7 13.7386 9.23858 11.5 12 11.5ZM5 16.4999C5 15.807 5.10067 15.1376 5.28818 14.5056L5.11864 14.5204C3.36503 14.7104 2 16.1958 2 17.9999V22.4999H5V16.4999ZM22 22.4999V17.9999C22 16.1378 20.5459 14.6153 18.7118 14.5056C18.8993 15.1376 19 15.807 19 16.4999V22.4999H22Z" fill="#FCFCFC"/>
</svg>
