<svg width="430" height="623" viewBox="0 0 430 623" fill="none" xmlns="http://www.w3.org/2000/svg">
    <g opacity="0.49" filter="url(#filter0_f_739_11829)">
        <path fill-rule="evenodd" clip-rule="evenodd" d="M61.1008 337.117C109.169 333.622 159.399 306.114 200.086 331.962C245.85 361.035 270.07 416.818 271.89 471.028C273.765 526.859 251.568 582.752 209.751 619.765C169.941 655.002 114.014 662.629 61.1008 657.603C13.3723 653.07 -30.433 630.276 -61.7744 593.975C-90.9237 560.212 -100.481 515.641 -99.9816 471.028C-99.4894 427.02 -92.8868 378.928 -59.0546 350.802C-26.8225 324.007 19.3056 340.155 61.1008 337.117Z" fill="url(#paint0_linear_739_11829)"/>
    </g>
    <defs>
        <filter id="filter0_f_739_11829" x="-420.4" y="0.600008" width="1012.8" height="978.8" filterUnits="userSpaceOnUse" color-interpolation-filters="sRGB">
            <feFlood flood-opacity="0" result="BackgroundImageFix"/>
            <feBlend mode="normal" in="SourceGraphic" in2="BackgroundImageFix" result="shape"/>
            <feGaussianBlur stdDeviation="160.2" result="effect1_foregroundBlur_739_11829"/>
        </filter>
        <linearGradient id="paint0_linear_739_11829" x1="-245.08" y1="184.11" x2="358.854" y2="848.794" gradientUnits="userSpaceOnUse">
            <stop stop-color="#6857FD"/>
            <stop offset="1" stop-color="#3E3497"/>
        </linearGradient>
    </defs>
</svg>
