<svg width="40" height="40" viewBox="0 0 40 40" fill="none" xmlns="http://www.w3.org/2000/svg">
    <path fill-rule="evenodd" clip-rule="evenodd" d="M13.8219 18.8215C13.5095 19.134 13.3339 19.5579 13.3339 19.9998C13.3339 20.4418 13.5095 20.8656 13.8219 21.1781L23.2502 30.6065C23.404 30.7657 23.5879 30.8926 23.7912 30.98C23.9946 31.0673 24.2133 31.1133 24.4346 31.1152C24.6559 31.1172 24.8753 31.075 25.0802 30.9912C25.285 30.9074 25.4711 30.7836 25.6276 30.6271C25.7841 30.4706 25.9078 30.2846 25.9916 30.0797C26.0754 29.8749 26.1176 29.6554 26.1157 29.4341C26.1137 29.2128 26.0678 28.9941 25.9804 28.7908C25.8931 28.5875 25.7661 28.4036 25.6069 28.2498L17.3569 19.9998L25.6069 11.7498C25.9105 11.4355 26.0785 11.0145 26.0747 10.5775C26.0709 10.1405 25.8956 9.72246 25.5866 9.41345C25.2776 9.10443 24.8596 8.92915 24.4226 8.92536C23.9856 8.92156 23.5646 9.08955 23.2502 9.39315L13.8219 18.8215Z" fill="#FCFCFC"/>
</svg>
