<svg width="225" height="225" viewBox="0 0 225 225" fill="none" xmlns="http://www.w3.org/2000/svg">
    <g filter="url(#filter0_ii_1264_408)">
        <path d="M176.331 45.4277C176.433 47.4964 178.163 49.2587 180.226 49.3992C184.098 49.6558 187.843 50.884 191.115 52.9704C194.387 55.0568 197.081 57.9341 198.947 61.3366C200.814 64.7391 201.793 68.557 201.794 72.4378C201.795 76.3185 200.818 80.137 198.953 83.5404C193.328 93.8268 180.883 97.6962 170.61 94.012C165.706 92.2497 159.742 92.0518 156.052 95.736L95.3291 156.471C91.7151 160.079 91.8173 165.876 93.5157 170.684L93.6306 171.029C95.5852 176.834 95.1542 183.177 92.4325 188.663C89.7108 194.15 84.9212 198.33 79.1173 200.286C67.0302 204.36 55.6392 198.645 51.5655 186.558C50.829 184.158 50.4545 181.662 50.4545 179.151C50.4276 178.134 50.0147 177.166 49.2996 176.442C48.5844 175.719 47.6208 175.295 46.6043 175.256C42.7157 175.18 38.3675 174.445 35.2132 172.721C32.5524 171.265 30.2046 169.299 28.3037 166.935C26.4029 164.571 24.9863 161.856 24.1349 158.945C23.2834 156.034 23.0138 152.983 23.3414 149.968C23.669 146.952 24.5874 144.031 26.0442 141.37C31.6631 131.097 44.0885 127.215 54.3558 130.886C59.2532 132.636 65.1977 132.821 68.8819 129.143L129.649 68.3694C133.25 64.7682 133.161 58.9833 131.469 54.1817C130.7 52.0121 130.263 49.7389 130.173 47.439C129.958 42.2994 131.473 37.2362 134.476 33.0597C136.254 30.5657 138.513 28.4523 141.119 26.8437C143.726 25.2351 146.627 24.1638 149.654 23.6927C152.259 23.2822 154.915 23.3189 157.507 23.8013C160.834 24.422 163.982 25.7694 166.727 27.7473C169.19 29.5065 171.281 31.7348 172.879 34.3044C174.478 36.8739 175.553 39.734 176.043 42.7204C176.197 43.6271 176.292 44.5274 176.331 45.4277Z" fill="#DCD4E1"/>
    </g>
    <path d="M176.331 45.4277C176.433 47.4964 178.163 49.2587 180.226 49.3992C184.098 49.6558 187.843 50.884 191.115 52.9704C194.387 55.0568 197.081 57.9341 198.947 61.3366C200.814 64.7391 201.793 68.557 201.794 72.4378C201.795 76.3185 200.818 80.137 198.953 83.5404C193.328 93.8268 180.883 97.6962 170.61 94.012C165.706 92.2497 159.742 92.0518 156.052 95.736L95.3291 156.471C91.7151 160.079 91.8173 165.876 93.5157 170.684L93.6306 171.029C95.5852 176.834 95.1542 183.177 92.4325 188.663C89.7108 194.15 84.9212 198.33 79.1173 200.286C67.0302 204.36 55.6392 198.645 51.5655 186.558C50.829 184.158 50.4545 181.662 50.4545 179.151C50.4276 178.134 50.0147 177.166 49.2996 176.442C48.5844 175.719 47.6208 175.295 46.6043 175.256C42.7157 175.18 38.3675 174.445 35.2132 172.721C32.5524 171.265 30.2046 169.299 28.3037 166.935C26.4029 164.571 24.9863 161.856 24.1349 158.945C23.2834 156.034 23.0138 152.983 23.3414 149.968C23.669 146.952 24.5874 144.031 26.0442 141.37C31.6631 131.097 44.0885 127.215 54.3558 130.886C59.2532 132.636 65.1977 132.821 68.8819 129.143L129.649 68.3694C133.25 64.7682 133.161 58.9833 131.469 54.1817C130.7 52.0121 130.263 49.7389 130.173 47.439C129.958 42.2994 131.473 37.2362 134.476 33.0597C136.254 30.5657 138.513 28.4523 141.119 26.8437C143.726 25.2351 146.627 24.1638 149.654 23.6927C152.259 23.2822 154.915 23.3189 157.507 23.8013C160.834 24.422 163.982 25.7694 166.727 27.7473C169.19 29.5065 171.281 31.7348 172.879 34.3044C174.478 36.8739 175.553 39.734 176.043 42.7204C176.197 43.6271 176.292 44.5274 176.331 45.4277Z" fill="url(#paint0_radial_1264_408)"/>
    <path d="M176.331 45.4277C176.433 47.4964 178.163 49.2587 180.226 49.3992C184.098 49.6558 187.843 50.884 191.115 52.9704C194.387 55.0568 197.081 57.9341 198.947 61.3366C200.814 64.7391 201.793 68.557 201.794 72.4378C201.795 76.3185 200.818 80.137 198.953 83.5404C193.328 93.8268 180.883 97.6962 170.61 94.012C165.706 92.2497 159.742 92.0518 156.052 95.736L95.3291 156.471C91.7151 160.079 91.8173 165.876 93.5157 170.684L93.6306 171.029C95.5852 176.834 95.1542 183.177 92.4325 188.663C89.7108 194.15 84.9212 198.33 79.1173 200.286C67.0302 204.36 55.6392 198.645 51.5655 186.558C50.829 184.158 50.4545 181.662 50.4545 179.151C50.4276 178.134 50.0147 177.166 49.2996 176.442C48.5844 175.719 47.6208 175.295 46.6043 175.256C42.7157 175.18 38.3675 174.445 35.2132 172.721C32.5524 171.265 30.2046 169.299 28.3037 166.935C26.4029 164.571 24.9863 161.856 24.1349 158.945C23.2834 156.034 23.0138 152.983 23.3414 149.968C23.669 146.952 24.5874 144.031 26.0442 141.37C31.6631 131.097 44.0885 127.215 54.3558 130.886C59.2532 132.636 65.1977 132.821 68.8819 129.143L129.649 68.3694C133.25 64.7682 133.161 58.9833 131.469 54.1817C130.7 52.0121 130.263 49.7389 130.173 47.439C129.958 42.2994 131.473 37.2362 134.476 33.0597C136.254 30.5657 138.513 28.4523 141.119 26.8437C143.726 25.2351 146.627 24.1638 149.654 23.6927C152.259 23.2822 154.915 23.3189 157.507 23.8013C160.834 24.422 163.982 25.7694 166.727 27.7473C169.19 29.5065 171.281 31.7348 172.879 34.3044C174.478 36.8739 175.553 39.734 176.043 42.7204C176.197 43.6271 176.292 44.5274 176.331 45.4277Z" fill="url(#paint1_radial_1264_408)"/>
    <path d="M176.331 45.4277C176.433 47.4964 178.163 49.2587 180.226 49.3992C184.098 49.6558 187.843 50.884 191.115 52.9704C194.387 55.0568 197.081 57.9341 198.947 61.3366C200.814 64.7391 201.793 68.557 201.794 72.4378C201.795 76.3185 200.818 80.137 198.953 83.5404C193.328 93.8268 180.883 97.6962 170.61 94.012C165.706 92.2497 159.742 92.0518 156.052 95.736L95.3291 156.471C91.7151 160.079 91.8173 165.876 93.5157 170.684L93.6306 171.029C95.5852 176.834 95.1542 183.177 92.4325 188.663C89.7108 194.15 84.9212 198.33 79.1173 200.286C67.0302 204.36 55.6392 198.645 51.5655 186.558C50.829 184.158 50.4545 181.662 50.4545 179.151C50.4276 178.134 50.0147 177.166 49.2996 176.442C48.5844 175.719 47.6208 175.295 46.6043 175.256C42.7157 175.18 38.3675 174.445 35.2132 172.721C32.5524 171.265 30.2046 169.299 28.3037 166.935C26.4029 164.571 24.9863 161.856 24.1349 158.945C23.2834 156.034 23.0138 152.983 23.3414 149.968C23.669 146.952 24.5874 144.031 26.0442 141.37C31.6631 131.097 44.0885 127.215 54.3558 130.886C59.2532 132.636 65.1977 132.821 68.8819 129.143L129.649 68.3694C133.25 64.7682 133.161 58.9833 131.469 54.1817C130.7 52.0121 130.263 49.7389 130.173 47.439C129.958 42.2994 131.473 37.2362 134.476 33.0597C136.254 30.5657 138.513 28.4523 141.119 26.8437C143.726 25.2351 146.627 24.1638 149.654 23.6927C152.259 23.2822 154.915 23.3189 157.507 23.8013C160.834 24.422 163.982 25.7694 166.727 27.7473C169.19 29.5065 171.281 31.7348 172.879 34.3044C174.478 36.8739 175.553 39.734 176.043 42.7204C176.197 43.6271 176.292 44.5274 176.331 45.4277Z" fill="url(#paint2_radial_1264_408)"/>
    <path d="M176.331 45.4277C176.433 47.4964 178.163 49.2587 180.226 49.3992C184.098 49.6558 187.843 50.884 191.115 52.9704C194.387 55.0568 197.081 57.9341 198.947 61.3366C200.814 64.7391 201.793 68.557 201.794 72.4378C201.795 76.3185 200.818 80.137 198.953 83.5404C193.328 93.8268 180.883 97.6962 170.61 94.012C165.706 92.2497 159.742 92.0518 156.052 95.736L95.3291 156.471C91.7151 160.079 91.8173 165.876 93.5157 170.684L93.6306 171.029C95.5852 176.834 95.1542 183.177 92.4325 188.663C89.7108 194.15 84.9212 198.33 79.1173 200.286C67.0302 204.36 55.6392 198.645 51.5655 186.558C50.829 184.158 50.4545 181.662 50.4545 179.151C50.4276 178.134 50.0147 177.166 49.2996 176.442C48.5844 175.719 47.6208 175.295 46.6043 175.256C42.7157 175.18 38.3675 174.445 35.2132 172.721C32.5524 171.265 30.2046 169.299 28.3037 166.935C26.4029 164.571 24.9863 161.856 24.1349 158.945C23.2834 156.034 23.0138 152.983 23.3414 149.968C23.669 146.952 24.5874 144.031 26.0442 141.37C31.6631 131.097 44.0885 127.215 54.3558 130.886C59.2532 132.636 65.1977 132.821 68.8819 129.143L129.649 68.3694C133.25 64.7682 133.161 58.9833 131.469 54.1817C130.7 52.0121 130.263 49.7389 130.173 47.439C129.958 42.2994 131.473 37.2362 134.476 33.0597C136.254 30.5657 138.513 28.4523 141.119 26.8437C143.726 25.2351 146.627 24.1638 149.654 23.6927C152.259 23.2822 154.915 23.3189 157.507 23.8013C160.834 24.422 163.982 25.7694 166.727 27.7473C169.19 29.5065 171.281 31.7348 172.879 34.3044C174.478 36.8739 175.553 39.734 176.043 42.7204C176.197 43.6271 176.292 44.5274 176.331 45.4277Z" fill="url(#paint3_radial_1264_408)"/>
    <path d="M176.331 45.4277C176.433 47.4964 178.163 49.2587 180.226 49.3992C184.098 49.6558 187.843 50.884 191.115 52.9704C194.387 55.0568 197.081 57.9341 198.947 61.3366C200.814 64.7391 201.793 68.557 201.794 72.4378C201.795 76.3185 200.818 80.137 198.953 83.5404C193.328 93.8268 180.883 97.6962 170.61 94.012C165.706 92.2497 159.742 92.0518 156.052 95.736L95.3291 156.471C91.7151 160.079 91.8173 165.876 93.5157 170.684L93.6306 171.029C95.5852 176.834 95.1542 183.177 92.4325 188.663C89.7108 194.15 84.9212 198.33 79.1173 200.286C67.0302 204.36 55.6392 198.645 51.5655 186.558C50.829 184.158 50.4545 181.662 50.4545 179.151C50.4276 178.134 50.0147 177.166 49.2996 176.442C48.5844 175.719 47.6208 175.295 46.6043 175.256C42.7157 175.18 38.3675 174.445 35.2132 172.721C32.5524 171.265 30.2046 169.299 28.3037 166.935C26.4029 164.571 24.9863 161.856 24.1349 158.945C23.2834 156.034 23.0138 152.983 23.3414 149.968C23.669 146.952 24.5874 144.031 26.0442 141.37C31.6631 131.097 44.0885 127.215 54.3558 130.886C59.2532 132.636 65.1977 132.821 68.8819 129.143L129.649 68.3694C133.25 64.7682 133.161 58.9833 131.469 54.1817C130.7 52.0121 130.263 49.7389 130.173 47.439C129.958 42.2994 131.473 37.2362 134.476 33.0597C136.254 30.5657 138.513 28.4523 141.119 26.8437C143.726 25.2351 146.627 24.1638 149.654 23.6927C152.259 23.2822 154.915 23.3189 157.507 23.8013C160.834 24.422 163.982 25.7694 166.727 27.7473C169.19 29.5065 171.281 31.7348 172.879 34.3044C174.478 36.8739 175.553 39.734 176.043 42.7204C176.197 43.6271 176.292 44.5274 176.331 45.4277Z" fill="url(#paint4_radial_1264_408)"/>
    <path d="M176.331 45.4277C176.433 47.4964 178.163 49.2587 180.226 49.3992C184.098 49.6558 187.843 50.884 191.115 52.9704C194.387 55.0568 197.081 57.9341 198.947 61.3366C200.814 64.7391 201.793 68.557 201.794 72.4378C201.795 76.3185 200.818 80.137 198.953 83.5404C193.328 93.8268 180.883 97.6962 170.61 94.012C165.706 92.2497 159.742 92.0518 156.052 95.736L95.3291 156.471C91.7151 160.079 91.8173 165.876 93.5157 170.684L93.6306 171.029C95.5852 176.834 95.1542 183.177 92.4325 188.663C89.7108 194.15 84.9212 198.33 79.1173 200.286C67.0302 204.36 55.6392 198.645 51.5655 186.558C50.829 184.158 50.4545 181.662 50.4545 179.151C50.4276 178.134 50.0147 177.166 49.2996 176.442C48.5844 175.719 47.6208 175.295 46.6043 175.256C42.7157 175.18 38.3675 174.445 35.2132 172.721C32.5524 171.265 30.2046 169.299 28.3037 166.935C26.4029 164.571 24.9863 161.856 24.1349 158.945C23.2834 156.034 23.0138 152.983 23.3414 149.968C23.669 146.952 24.5874 144.031 26.0442 141.37C31.6631 131.097 44.0885 127.215 54.3558 130.886C59.2532 132.636 65.1977 132.821 68.8819 129.143L129.649 68.3694C133.25 64.7682 133.161 58.9833 131.469 54.1817C130.7 52.0121 130.263 49.7389 130.173 47.439C129.958 42.2994 131.473 37.2362 134.476 33.0597C136.254 30.5657 138.513 28.4523 141.119 26.8437C143.726 25.2351 146.627 24.1638 149.654 23.6927C152.259 23.2822 154.915 23.3189 157.507 23.8013C160.834 24.422 163.982 25.7694 166.727 27.7473C169.19 29.5065 171.281 31.7348 172.879 34.3044C174.478 36.8739 175.553 39.734 176.043 42.7204C176.197 43.6271 176.292 44.5274 176.331 45.4277Z" fill="url(#paint5_radial_1264_408)"/>
    <path d="M176.331 45.4277C176.433 47.4964 178.163 49.2587 180.226 49.3992C184.098 49.6558 187.843 50.884 191.115 52.9704C194.387 55.0568 197.081 57.9341 198.947 61.3366C200.814 64.7391 201.793 68.557 201.794 72.4378C201.795 76.3185 200.818 80.137 198.953 83.5404C193.328 93.8268 180.883 97.6962 170.61 94.012C165.706 92.2497 159.742 92.0518 156.052 95.736L95.3291 156.471C91.7151 160.079 91.8173 165.876 93.5157 170.684L93.6306 171.029C95.5852 176.834 95.1542 183.177 92.4325 188.663C89.7108 194.15 84.9212 198.33 79.1173 200.286C67.0302 204.36 55.6392 198.645 51.5655 186.558C50.829 184.158 50.4545 181.662 50.4545 179.151C50.4276 178.134 50.0147 177.166 49.2996 176.442C48.5844 175.719 47.6208 175.295 46.6043 175.256C42.7157 175.18 38.3675 174.445 35.2132 172.721C32.5524 171.265 30.2046 169.299 28.3037 166.935C26.4029 164.571 24.9863 161.856 24.1349 158.945C23.2834 156.034 23.0138 152.983 23.3414 149.968C23.669 146.952 24.5874 144.031 26.0442 141.37C31.6631 131.097 44.0885 127.215 54.3558 130.886C59.2532 132.636 65.1977 132.821 68.8819 129.143L129.649 68.3694C133.25 64.7682 133.161 58.9833 131.469 54.1817C130.7 52.0121 130.263 49.7389 130.173 47.439C129.958 42.2994 131.473 37.2362 134.476 33.0597C136.254 30.5657 138.513 28.4523 141.119 26.8437C143.726 25.2351 146.627 24.1638 149.654 23.6927C152.259 23.2822 154.915 23.3189 157.507 23.8013C160.834 24.422 163.982 25.7694 166.727 27.7473C169.19 29.5065 171.281 31.7348 172.879 34.3044C174.478 36.8739 175.553 39.734 176.043 42.7204C176.197 43.6271 176.292 44.5274 176.331 45.4277Z" fill="url(#paint6_radial_1264_408)"/>
    <path d="M176.331 45.4277C176.433 47.4964 178.163 49.2587 180.226 49.3992C184.098 49.6558 187.843 50.884 191.115 52.9704C194.387 55.0568 197.081 57.9341 198.947 61.3366C200.814 64.7391 201.793 68.557 201.794 72.4378C201.795 76.3185 200.818 80.137 198.953 83.5404C193.328 93.8268 180.883 97.6962 170.61 94.012C165.706 92.2497 159.742 92.0518 156.052 95.736L95.3291 156.471C91.7151 160.079 91.8173 165.876 93.5157 170.684L93.6306 171.029C95.5852 176.834 95.1542 183.177 92.4325 188.663C89.7108 194.15 84.9212 198.33 79.1173 200.286C67.0302 204.36 55.6392 198.645 51.5655 186.558C50.829 184.158 50.4545 181.662 50.4545 179.151C50.4276 178.134 50.0147 177.166 49.2996 176.442C48.5844 175.719 47.6208 175.295 46.6043 175.256C42.7157 175.18 38.3675 174.445 35.2132 172.721C32.5524 171.265 30.2046 169.299 28.3037 166.935C26.4029 164.571 24.9863 161.856 24.1349 158.945C23.2834 156.034 23.0138 152.983 23.3414 149.968C23.669 146.952 24.5874 144.031 26.0442 141.37C31.6631 131.097 44.0885 127.215 54.3558 130.886C59.2532 132.636 65.1977 132.821 68.8819 129.143L129.649 68.3694C133.25 64.7682 133.161 58.9833 131.469 54.1817C130.7 52.0121 130.263 49.7389 130.173 47.439C129.958 42.2994 131.473 37.2362 134.476 33.0597C136.254 30.5657 138.513 28.4523 141.119 26.8437C143.726 25.2351 146.627 24.1638 149.654 23.6927C152.259 23.2822 154.915 23.3189 157.507 23.8013C160.834 24.422 163.982 25.7694 166.727 27.7473C169.19 29.5065 171.281 31.7348 172.879 34.3044C174.478 36.8739 175.553 39.734 176.043 42.7204C176.197 43.6271 176.292 44.5274 176.331 45.4277Z" fill="url(#paint7_radial_1264_408)"/>
    <path d="M176.331 45.4277C176.433 47.4964 178.163 49.2587 180.226 49.3992C184.098 49.6558 187.843 50.884 191.115 52.9704C194.387 55.0568 197.081 57.9341 198.947 61.3366C200.814 64.7391 201.793 68.557 201.794 72.4378C201.795 76.3185 200.818 80.137 198.953 83.5404C193.328 93.8268 180.883 97.6962 170.61 94.012C165.706 92.2497 159.742 92.0518 156.052 95.736L95.3291 156.471C91.7151 160.079 91.8173 165.876 93.5157 170.684L93.6306 171.029C95.5852 176.834 95.1542 183.177 92.4325 188.663C89.7108 194.15 84.9212 198.33 79.1173 200.286C67.0302 204.36 55.6392 198.645 51.5655 186.558C50.829 184.158 50.4545 181.662 50.4545 179.151C50.4276 178.134 50.0147 177.166 49.2996 176.442C48.5844 175.719 47.6208 175.295 46.6043 175.256C42.7157 175.18 38.3675 174.445 35.2132 172.721C32.5524 171.265 30.2046 169.299 28.3037 166.935C26.4029 164.571 24.9863 161.856 24.1349 158.945C23.2834 156.034 23.0138 152.983 23.3414 149.968C23.669 146.952 24.5874 144.031 26.0442 141.37C31.6631 131.097 44.0885 127.215 54.3558 130.886C59.2532 132.636 65.1977 132.821 68.8819 129.143L129.649 68.3694C133.25 64.7682 133.161 58.9833 131.469 54.1817C130.7 52.0121 130.263 49.7389 130.173 47.439C129.958 42.2994 131.473 37.2362 134.476 33.0597C136.254 30.5657 138.513 28.4523 141.119 26.8437C143.726 25.2351 146.627 24.1638 149.654 23.6927C152.259 23.2822 154.915 23.3189 157.507 23.8013C160.834 24.422 163.982 25.7694 166.727 27.7473C169.19 29.5065 171.281 31.7348 172.879 34.3044C174.478 36.8739 175.553 39.734 176.043 42.7204C176.197 43.6271 176.292 44.5274 176.331 45.4277Z" fill="url(#paint8_radial_1264_408)"/>
    <path d="M176.331 45.4277C176.433 47.4964 178.163 49.2587 180.226 49.3992C184.098 49.6558 187.843 50.884 191.115 52.9704C194.387 55.0568 197.081 57.9341 198.947 61.3366C200.814 64.7391 201.793 68.557 201.794 72.4378C201.795 76.3185 200.818 80.137 198.953 83.5404C193.328 93.8268 180.883 97.6962 170.61 94.012C165.706 92.2497 159.742 92.0518 156.052 95.736L95.3291 156.471C91.7151 160.079 91.8173 165.876 93.5157 170.684L93.6306 171.029C95.5852 176.834 95.1542 183.177 92.4325 188.663C89.7108 194.15 84.9212 198.33 79.1173 200.286C67.0302 204.36 55.6392 198.645 51.5655 186.558C50.829 184.158 50.4545 181.662 50.4545 179.151C50.4276 178.134 50.0147 177.166 49.2996 176.442C48.5844 175.719 47.6208 175.295 46.6043 175.256C42.7157 175.18 38.3675 174.445 35.2132 172.721C32.5524 171.265 30.2046 169.299 28.3037 166.935C26.4029 164.571 24.9863 161.856 24.1349 158.945C23.2834 156.034 23.0138 152.983 23.3414 149.968C23.669 146.952 24.5874 144.031 26.0442 141.37C31.6631 131.097 44.0885 127.215 54.3558 130.886C59.2532 132.636 65.1977 132.821 68.8819 129.143L129.649 68.3694C133.25 64.7682 133.161 58.9833 131.469 54.1817C130.7 52.0121 130.263 49.7389 130.173 47.439C129.958 42.2994 131.473 37.2362 134.476 33.0597C136.254 30.5657 138.513 28.4523 141.119 26.8437C143.726 25.2351 146.627 24.1638 149.654 23.6927C152.259 23.2822 154.915 23.3189 157.507 23.8013C160.834 24.422 163.982 25.7694 166.727 27.7473C169.19 29.5065 171.281 31.7348 172.879 34.3044C174.478 36.8739 175.553 39.734 176.043 42.7204C176.197 43.6271 176.292 44.5274 176.331 45.4277Z" fill="url(#paint9_radial_1264_408)"/>
    <g filter="url(#filter1_f_1264_408)">
        <path d="M49.7714 158.521C57.4335 163.233 55.9586 172.587 54.2601 176.68L47.5813 171.993C50.9335 167.843 50.4354 161.286 49.7714 158.521Z" fill="#B0B0B0"/>
    </g>
    <g filter="url(#filter2_f_1264_408)">
        <path d="M177.971 72.1812C177.716 63.5294 183.463 54.9542 185.365 52.9428L177.971 51.0337C172.123 62.2268 175.539 70.272 177.971 72.1812Z" fill="url(#paint10_linear_1264_408)"/>
    </g>
    <defs>
        <filter id="filter0_ii_1264_408" x="23.2063" y="22.285" width="179.712" height="179.305" filterUnits="userSpaceOnUse" color-interpolation-filters="sRGB">
            <feFlood flood-opacity="0" result="BackgroundImageFix"/>
            <feBlend mode="normal" in="SourceGraphic" in2="BackgroundImageFix" result="shape"/>
            <feColorMatrix in="SourceAlpha" type="matrix" values="0 0 0 0 0 0 0 0 0 0 0 0 0 0 0 0 0 0 127 0" result="hardAlpha"/>
            <feOffset dx="1.125"/>
            <feGaussianBlur stdDeviation="1.875"/>
            <feComposite in2="hardAlpha" operator="arithmetic" k2="-1" k3="1"/>
            <feColorMatrix type="matrix" values="0 0 0 0 0.580392 0 0 0 0 0.568627 0 0 0 0 0.584314 0 0 0 1 0"/>
            <feBlend mode="normal" in2="shape" result="effect1_innerShadow_1264_408"/>
            <feColorMatrix in="SourceAlpha" type="matrix" values="0 0 0 0 0 0 0 0 0 0 0 0 0 0 0 0 0 0 127 0" result="hardAlpha"/>
            <feOffset dy="-1.125"/>
            <feGaussianBlur stdDeviation="1.125"/>
            <feComposite in2="hardAlpha" operator="arithmetic" k2="-1" k3="1"/>
            <feColorMatrix type="matrix" values="0 0 0 0 0.756863 0 0 0 0 0.662745 0 0 0 0 0.815686 0 0 0 1 0"/>
            <feBlend mode="normal" in2="effect1_innerShadow_1264_408" result="effect2_innerShadow_1264_408"/>
        </filter>
        <filter id="filter1_f_1264_408" x="46.0813" y="157.021" width="11.041" height="21.1592" filterUnits="userSpaceOnUse" color-interpolation-filters="sRGB">
            <feFlood flood-opacity="0" result="BackgroundImageFix"/>
            <feBlend mode="normal" in="SourceGraphic" in2="BackgroundImageFix" result="shape"/>
            <feGaussianBlur stdDeviation="0.75" result="effect1_foregroundBlur_1264_408"/>
        </filter>
        <filter id="filter2_f_1264_408" x="173.243" y="49.5337" width="13.6221" height="24.1475" filterUnits="userSpaceOnUse" color-interpolation-filters="sRGB">
            <feFlood flood-opacity="0" result="BackgroundImageFix"/>
            <feBlend mode="normal" in="SourceGraphic" in2="BackgroundImageFix" result="shape"/>
            <feGaussianBlur stdDeviation="0.75" result="effect1_foregroundBlur_1264_408"/>
        </filter>
        <radialGradient id="paint0_radial_1264_408" cx="0" cy="0" r="1" gradientUnits="userSpaceOnUse" gradientTransform="translate(166.07 41.2454) rotate(101.843) scale(27.5187 27.5945)">
            <stop stop-color="#FBFAFC"/>
            <stop offset="1" stop-color="#E5E5E5" stop-opacity="0"/>
        </radialGradient>
        <radialGradient id="paint1_radial_1264_408" cx="0" cy="0" r="1" gradientUnits="userSpaceOnUse" gradientTransform="translate(194.86 65.1166) rotate(159.444) scale(19.4234 18.5143)">
            <stop stop-color="#FBFAFC"/>
            <stop offset="1" stop-color="#E5E5E5" stop-opacity="0"/>
        </radialGradient>
        <radialGradient id="paint2_radial_1264_408" cx="0" cy="0" r="1" gradientUnits="userSpaceOnUse" gradientTransform="translate(184.255 30.8249) rotate(112.855) scale(49.7515 10.7701)">
            <stop stop-color="#FBFAFC"/>
            <stop offset="1" stop-color="#E5E5E5" stop-opacity="0"/>
        </radialGradient>
        <radialGradient id="paint3_radial_1264_408" cx="0" cy="0" r="1" gradientUnits="userSpaceOnUse" gradientTransform="translate(179.172 112.497) rotate(-102.377) scale(46.5444 28.4591)">
            <stop stop-color="#BDA5CC"/>
            <stop offset="1" stop-color="#BDA5CC" stop-opacity="0"/>
        </radialGradient>
        <radialGradient id="paint4_radial_1264_408" cx="0" cy="0" r="1" gradientUnits="userSpaceOnUse" gradientTransform="translate(20.3423 142.865) rotate(5.49232) scale(20.8473 19.8237)">
            <stop stop-color="#9B9A9B"/>
            <stop offset="1" stop-color="#9B9A9B" stop-opacity="0"/>
        </radialGradient>
        <radialGradient id="paint5_radial_1264_408" cx="0" cy="0" r="1" gradientUnits="userSpaceOnUse" gradientTransform="translate(53.4619 144.059) rotate(-102.529) scale(18.3962 13.4617)">
            <stop stop-color="#E8E3EB"/>
            <stop offset="1" stop-color="#E8E3EB" stop-opacity="0"/>
        </radialGradient>
        <radialGradient id="paint6_radial_1264_408" cx="0" cy="0" r="1" gradientUnits="userSpaceOnUse" gradientTransform="translate(36.7009 180.173) rotate(-80.2724) scale(28.3424 20.9725)">
            <stop stop-color="#C6AED5"/>
            <stop offset="1" stop-color="#C6AED5" stop-opacity="0"/>
        </radialGradient>
        <radialGradient id="paint7_radial_1264_408" cx="0" cy="0" r="1" gradientUnits="userSpaceOnUse" gradientTransform="translate(97.5324 170.738) rotate(-171.861) scale(33.4344 18.5689)">
            <stop offset="0.289" stop-color="#F5EEF9"/>
            <stop offset="1" stop-color="#F5EEF9" stop-opacity="0"/>
        </radialGradient>
        <radialGradient id="paint8_radial_1264_408" cx="0" cy="0" r="1" gradientUnits="userSpaceOnUse" gradientTransform="translate(81.8016 49.4784) rotate(90.74) scale(154.453 155.962)">
            <stop offset="0.857" stop-color="#D5BBE5" stop-opacity="0"/>
            <stop offset="1" stop-color="#D5BBE5"/>
        </radialGradient>
        <radialGradient id="paint9_radial_1264_408" cx="0" cy="0" r="1" gradientUnits="userSpaceOnUse" gradientTransform="translate(43.4883 199.13) rotate(-69.2277) scale(37.1328 17.6423)">
            <stop stop-color="#A199A7"/>
            <stop offset="1" stop-color="#A199A7" stop-opacity="0"/>
        </radialGradient>
        <linearGradient id="paint10_linear_1264_408" x1="181.311" y1="52.464" x2="176.145" y2="83.5467" gradientUnits="userSpaceOnUse">
            <stop stop-color="#B6B0BB"/>
            <stop offset="1" stop-color="#C6BFCB" stop-opacity="0"/>
        </linearGradient>
    </defs>
</svg>
