<svg width="31" height="33" viewBox="0 0 31 33" fill="none" xmlns="http://www.w3.org/2000/svg">
    <path d="M13.0443 3.60998C13.8257 4.3131 14.338 5.28123 14.489 6.33987C14.64 7.3985 14.4197 8.47799 13.8677 9.38373C13.8662 9.38775 13.8662 9.3922 13.8677 9.39623L22.3879 18.19L22.3975 18.19C22.9535 17.8337 23.5801 17.6112 24.2308 17.5389C24.8814 17.4667 25.5395 17.5466 26.1562 17.7728C26.7728 17.9989 27.3323 18.3655 27.793 18.8453C28.2537 19.325 28.6038 19.9057 28.8174 20.5443C29.031 21.1828 29.1026 21.8628 29.0269 22.5338C28.9512 23.2048 28.7301 23.8495 28.3801 24.4203C28.03 24.9911 27.56 25.4731 27.0048 25.8308C26.4496 26.1884 25.8235 26.4124 25.173 26.4862C25.1015 27.1577 24.8845 27.804 24.538 28.3771C24.1916 28.9502 23.7246 29.4354 23.1717 29.7967C22.6187 30.1581 21.9941 30.3863 21.3441 30.4645C20.694 30.5426 20.0353 30.4687 19.4167 30.2482C18.7982 30.0277 18.2356 29.6663 17.7708 29.1907C17.306 28.7151 16.9509 28.1377 16.7319 27.5011C16.5128 26.8646 16.4354 26.1853 16.5053 25.5136C16.5753 24.8419 16.7909 24.1952 17.136 23.6212C17.1375 23.6172 17.1375 23.6128 17.136 23.6087L8.61586 14.815L8.60618 14.815C8.05018 15.1713 7.42361 15.3938 6.77294 15.466C6.12227 15.5382 5.4642 15.4583 4.84754 15.2322C4.23088 15.006 3.67145 14.6395 3.21075 14.1597C2.75006 13.6799 2.39991 13.0992 2.1863 12.4607C1.97268 11.8222 1.90107 11.1422 1.97678 10.4712C2.05249 9.8002 2.27358 9.15541 2.62364 8.58465C2.97371 8.01389 3.44377 7.53182 3.99895 7.17418C4.55414 6.81654 5.1802 6.59252 5.83071 6.51873C5.9144 5.69798 6.21514 4.9168 6.70002 4.26063C7.1849 3.60445 7.83525 3.09855 8.57994 2.79827C9.32463 2.49799 10.135 2.41488 10.9223 2.55804C11.7097 2.7012 12.4438 3.06512 13.0443 3.60998Z" fill="#FCFCFC"/>
</svg>
