<svg width="30" height="30" viewBox="0 0 30 30" fill="none" xmlns="http://www.w3.org/2000/svg">
    <path d="M10 1.875C10 1.18464 9.44035 0.625 8.75 0.625C8.05965 0.625 7.5 1.18464 7.5 1.875V3.125C7.5 3.13357 7.50052 3.14106 7.50101 3.14804C7.50481 3.20241 7.50645 3.22579 7.24111 3.49111L7.21596 3.51622C6.88249 3.8489 6.25 4.47989 6.25 5.625V6.875C6.25 7.56535 6.80965 8.125 7.5 8.125C8.19035 8.125 8.75 7.56535 8.75 6.875V5.625C8.75 5.61643 8.74948 5.60894 8.74899 5.60196C8.74519 5.54759 8.74355 5.52421 9.00889 5.25889L9.03404 5.23377C9.36751 4.9011 10 4.27011 10 3.125V1.875ZM2.5 11.25C2.5 10.5596 3.05965 10 3.75 10H26.25C26.9404 10 27.5 10.5597 27.5 11.25V12.5C27.5 17.6257 24.4147 22.031 20 23.9599V25C20 25.6904 19.4404 26.25 18.75 26.25H11.25C10.5597 26.25 10 25.6904 10 25V23.9599C5.58524 22.031 2.5 17.6257 2.5 12.5V11.25ZM22.5 0.625C23.1904 0.625 23.75 1.18464 23.75 1.875V3.125C23.75 4.27011 23.1175 4.9011 22.784 5.23377L22.7589 5.25889C22.4935 5.52421 22.4953 5.54759 22.499 5.60196C22.4995 5.60894 22.5 5.61643 22.5 5.625V6.875C22.5 7.56535 21.9404 8.125 21.25 8.125C20.5596 8.125 20 7.56535 20 6.875V5.625C20 4.47989 20.6325 3.8489 20.966 3.51622L20.9911 3.49111C21.2565 3.22579 21.2547 3.20241 21.251 3.14804C21.2505 3.14106 21.25 3.13357 21.25 3.125V1.875C21.25 1.18464 21.8096 0.625 22.5 0.625ZM16.875 1.875C16.875 1.18464 16.3154 0.625 15.625 0.625C14.9346 0.625 14.375 1.18464 14.375 1.875V3.125C14.375 3.13357 14.3755 3.14106 14.376 3.14804C14.3798 3.20241 14.3815 3.22579 14.1161 3.49111L14.091 3.51622C13.7575 3.8489 13.125 4.47989 13.125 5.625V6.875C13.125 7.56535 13.6846 8.125 14.375 8.125C15.0654 8.125 15.625 7.56535 15.625 6.875V5.625C15.625 5.61643 15.6245 5.60894 15.624 5.60196C15.6202 5.54759 15.6185 5.52421 15.8839 5.25889L15.909 5.23377C16.2425 4.9011 16.875 4.27011 16.875 3.125V1.875Z" fill="#1E90FF"/>
</svg>
