<svg width="36" height="36" viewBox="0 0 36 36" fill="none" xmlns="http://www.w3.org/2000/svg">
<path d="M17.25 30L24.54 15.405H19.5V6L12 20.595H17.25V30ZM18 3C22.125 3 25.65 4.5 28.575 7.425C31.5 10.35 33 13.875 33 18C33 22.125 31.5 25.65 28.575 28.575C25.65 31.5 22.125 33 18 33C13.875 33 10.35 31.5 7.425 28.575C4.5 25.65 3 22.125 3 18C3 13.875 4.5 10.35 7.425 7.425C10.35 4.5 13.875 3 18 3Z" fill="url(#paint0_linear_593_26662)"/>
<defs>
<linearGradient id="paint0_linear_593_26662" x1="-1.5" y1="0.5" x2="33" y2="36.5" gradientUnits="userSpaceOnUse">
<stop stop-color="#75F7FF"/>
<stop offset="1" stop-color="#469499"/>
</linearGradient>
</defs>
</svg>
