<svg width="36" height="36" viewBox="0 0 36 36" fill="none" xmlns="http://www.w3.org/2000/svg">
    <path d="M13.3501 28.3997H23.2928C22.3578 30.6419 20.5637 32.436 18.3215 33.371C16.0793 32.436 14.2852 30.6419 13.3501 28.3997ZM26.8394 21.0242L29.6786 24.2444V26.9801H6.96436V24.2444L9.80364 21.0242V12.7837C9.80364 7.83869 13.359 3.63185 18.3215 2.07275C23.284 3.63185 26.8394 7.83869 26.8394 12.7837V21.0242ZM18.3215 15.6229C19.8896 15.6229 21.1608 14.3518 21.1608 12.7837C21.1608 11.2156 19.8896 9.94438 18.3215 9.94438C16.7534 9.94438 15.4822 11.2156 15.4822 12.7837C15.4822 14.3518 16.7534 15.6229 18.3215 15.6229Z" fill="#1E90FF"/>
</svg>
