<svg width="17" height="16" viewBox="0 0 17 16" fill="none" xmlns="http://www.w3.org/2000/svg">
    <path d="M8.50016 1.33334C12.1822 1.33334 15.1668 4.31801 15.1668 8.00001C15.1668 11.682 12.1822 14.6667 8.50016 14.6667C4.81816 14.6667 1.8335 11.682 1.8335 8.00001C1.8335 4.31801 4.81816 1.33334 8.50016 1.33334ZM8.50016 4.00001C8.32335 4.00001 8.15378 4.07025 8.02876 4.19527C7.90373 4.3203 7.8335 4.48987 7.8335 4.66668V8.00001C7.83353 8.17681 7.9038 8.34635 8.02883 8.47134L10.0288 10.4713C10.1546 10.5928 10.323 10.66 10.4978 10.6585C10.6726 10.6569 10.8398 10.5868 10.9634 10.4632C11.087 10.3396 11.1571 10.1724 11.1586 9.99761C11.1601 9.82281 11.0929 9.65441 10.9715 9.52868L9.16683 7.72401V4.66668C9.16683 4.48987 9.09659 4.3203 8.97157 4.19527C8.84654 4.07025 8.67697 4.00001 8.50016 4.00001Z" fill="#FCFCFC"/>
</svg>
