<svg width="16" height="16" viewBox="0 0 16 16" fill="none" xmlns="http://www.w3.org/2000/svg">
    <g filter="url(#filter0_i_1613_5424)">
        <path d="M8 13.6445C11.003 13.6445 13.4375 11.21 13.4375 8.207C13.4375 5.20395 11.003 2.7695 8 2.7695C4.99695 2.7695 2.5625 5.20395 2.5625 8.207C2.5625 11.21 4.99695 13.6445 8 13.6445Z" fill="url(#paint0_linear_1613_5424)"/>
    </g>
    <g filter="url(#filter1_iiii_1613_5424)">
        <path fill-rule="evenodd" clip-rule="evenodd" d="M8.00012 15.1915C11.8576 15.1915 14.9846 12.0645 14.9846 8.207C14.9846 4.3495 11.8576 1.2225 8.00012 1.2225C4.14262 1.2225 1.01562 4.35 1.01562 8.2075C1.01562 12.0645 4.14262 15.1915 8.00012 15.1915ZM8.00012 13.6445C11.0031 13.6445 13.4376 11.21 13.4376 8.207C13.4376 5.204 11.0031 2.77 8.00012 2.77C4.99712 2.77 2.56262 5.204 2.56262 8.207C2.56262 11.21 4.99712 13.645 8.00012 13.645" fill="url(#paint1_linear_1613_5424)"/>
    </g>
    <g filter="url(#filter2_f_1613_5424)">
        <path fill-rule="evenodd" clip-rule="evenodd" d="M4.95653 5.6575C4.91388 5.68462 4.87877 5.72208 4.85447 5.7664C4.83017 5.81072 4.81746 5.86046 4.81753 5.911V6.051C4.81754 6.11192 4.83981 6.17074 4.88013 6.21641C4.92046 6.26208 4.97607 6.29145 5.03653 6.299V10.0975H4.98253C4.90506 10.0976 4.82981 10.1233 4.76855 10.1707C4.7073 10.2181 4.6635 10.2845 4.64403 10.3595L4.48903 10.9525C4.4794 10.9895 4.47837 11.0282 4.48603 11.0656C4.49368 11.103 4.50981 11.1382 4.53318 11.1684C4.55655 11.1986 4.58653 11.2231 4.62083 11.2399C4.65512 11.2568 4.69282 11.2655 4.73103 11.2655H10.956C10.9936 11.2656 11.0308 11.2571 11.0647 11.2408C11.0986 11.2245 11.1284 11.2008 11.1518 11.1714C11.1753 11.1419 11.1918 11.1076 11.2002 11.0709C11.2085 11.0343 11.2085 10.9962 11.2 10.9595L11.064 10.369C11.0462 10.2918 11.0028 10.2229 10.9408 10.1735C10.8787 10.1242 10.8018 10.0974 10.7225 10.0975H10.669V6.2975C10.7278 6.28822 10.7813 6.25831 10.8199 6.21313C10.8586 6.16795 10.8799 6.11047 10.88 6.051V5.911C10.8801 5.8605 10.8675 5.8108 10.8433 5.76648C10.8191 5.72217 10.7841 5.68468 10.7415 5.6575L8.05003 3.945C7.98982 3.90664 7.91991 3.88626 7.84852 3.88626C7.77714 3.88626 7.70723 3.90664 7.64702 3.945L4.95653 5.6575ZM9.86452 10.0975V6.301H9.05952V10.0975H9.86452ZM8.25503 10.0975V6.301H7.45002V10.0975H8.25503ZM6.64553 10.0975V6.301H5.84103V10.0975H6.64553Z" fill="#DC7B3C"/>
    </g>
    <g filter="url(#filter3_ii_1613_5424)">
        <path d="M4.97412 5.77C4.97409 5.71959 4.98676 5.66998 5.01097 5.62576C5.03518 5.58154 5.07014 5.54414 5.11262 5.517L7.80412 3.804C7.86427 3.76574 7.93408 3.74542 8.00537 3.74542C8.07666 3.74542 8.14647 3.76574 8.20662 3.804L10.8976 5.517C10.9402 5.54408 10.9753 5.58146 10.9996 5.62568C11.0238 5.6699 11.0366 5.71954 11.0366 5.77V5.91C11.0366 5.9763 11.0103 6.03989 10.9634 6.08678C10.9165 6.13366 10.8529 6.16 10.7866 6.16H5.22412C5.15782 6.16 5.09423 6.13366 5.04734 6.08678C5.00046 6.03989 4.97412 5.9763 4.97412 5.91V5.77Z" fill="#FFC546"/>
    </g>
    <path d="M4.97412 5.77C4.97409 5.71959 4.98676 5.66998 5.01097 5.62576C5.03518 5.58154 5.07014 5.54414 5.11262 5.517L7.80412 3.804C7.86427 3.76574 7.93408 3.74542 8.00537 3.74542C8.07666 3.74542 8.14647 3.76574 8.20662 3.804L10.8976 5.517C10.9402 5.54408 10.9753 5.58146 10.9996 5.62568C11.0238 5.6699 11.0366 5.71954 11.0366 5.77V5.91C11.0366 5.9763 11.0103 6.03989 10.9634 6.08678C10.9165 6.13366 10.8529 6.16 10.7866 6.16H5.22412C5.15782 6.16 5.09423 6.13366 5.04734 6.08678C5.00046 6.03989 4.97412 5.9763 4.97412 5.91V5.77Z" fill="url(#paint2_linear_1613_5424)"/>
    <path d="M5.19238 6.0585C5.19238 6.02535 5.20555 5.99355 5.22899 5.97011C5.25244 5.94667 5.28423 5.9335 5.31738 5.9335H5.87238C5.90553 5.9335 5.93733 5.94667 5.96077 5.97011C5.98421 5.99355 5.99738 6.02535 5.99738 6.0585V10.0665H5.19238V6.0585Z" fill="url(#paint3_linear_1613_5424)"/>
    <path d="M5.19238 6.0585C5.19238 6.02535 5.20555 5.99355 5.22899 5.97011C5.25244 5.94667 5.28423 5.9335 5.31738 5.9335H5.87238C5.90553 5.9335 5.93733 5.94667 5.96077 5.97011C5.98421 5.99355 5.99738 6.02535 5.99738 6.0585V10.0665H5.19238V6.0585Z" fill="url(#paint4_linear_1613_5424)"/>
    <path d="M6.80225 5.9335H7.60675V10.0665H6.80225V5.9335Z" fill="url(#paint5_linear_1613_5424)"/>
    <path d="M6.80225 5.9335H7.60675V10.0665H6.80225V5.9335Z" fill="url(#paint6_linear_1613_5424)"/>
    <path d="M8.41162 5.9335H9.21612V10.0665H8.41162V5.9335Z" fill="url(#paint7_linear_1613_5424)"/>
    <path d="M8.41162 5.9335H9.21612V10.0665H8.41162V5.9335Z" fill="url(#paint8_linear_1613_5424)"/>
    <path d="M10.0205 5.9335H10.825V10.0665H10.0205V5.9335Z" fill="url(#paint9_linear_1613_5424)"/>
    <path d="M10.0205 5.9335H10.825V10.0665H10.0205V5.9335Z" fill="url(#paint10_linear_1613_5424)"/>
    <g filter="url(#filter4_ii_1613_5424)">
        <path d="M4.80026 10.2185C4.81986 10.1435 4.86377 10.0772 4.92512 10.0299C4.98646 9.98255 5.06178 9.95692 5.13926 9.957H10.8793C10.9584 9.95702 11.0353 9.98388 11.0972 10.0332C11.1591 10.0825 11.2025 10.1514 11.2203 10.2285L11.3568 10.8185C11.3653 10.8552 11.3654 10.8933 11.3571 10.9301C11.3488 10.9668 11.3323 11.0012 11.3088 11.0307C11.2854 11.0602 11.2555 11.084 11.2216 11.1003C11.1876 11.1166 11.1504 11.1251 11.1128 11.125H4.88776C4.84956 11.125 4.81186 11.1163 4.77756 11.0994C4.74327 11.0826 4.71328 11.0581 4.68992 11.0279C4.66655 10.9977 4.65042 10.9625 4.64276 10.9251C4.63511 10.8877 4.63614 10.849 4.64576 10.812L4.80026 10.2185Z" fill="#FFC248"/>
    </g>
    <defs>
        <filter id="filter0_i_1613_5424" x="2.1875" y="2.7695" width="11.25" height="11.25" filterUnits="userSpaceOnUse" color-interpolation-filters="sRGB">
            <feFlood flood-opacity="0" result="BackgroundImageFix"/>
            <feBlend mode="normal" in="SourceGraphic" in2="BackgroundImageFix" result="shape"/>
            <feColorMatrix in="SourceAlpha" type="matrix" values="0 0 0 0 0 0 0 0 0 0 0 0 0 0 0 0 0 0 127 0" result="hardAlpha"/>
            <feOffset dx="-0.375" dy="0.375"/>
            <feGaussianBlur stdDeviation="0.75"/>
            <feComposite in2="hardAlpha" operator="arithmetic" k2="-1" k3="1"/>
            <feColorMatrix type="matrix" values="0 0 0 0 0.831373 0 0 0 0 0.45098 0 0 0 0 0.196078 0 0 0 1 0"/>
            <feBlend mode="normal" in2="shape" result="effect1_innerShadow_1613_5424"/>
        </filter>
        <filter id="filter1_iiii_1613_5424" x="0.565625" y="0.7725" width="14.8692" height="14.869" filterUnits="userSpaceOnUse" color-interpolation-filters="sRGB">
            <feFlood flood-opacity="0" result="BackgroundImageFix"/>
            <feBlend mode="normal" in="SourceGraphic" in2="BackgroundImageFix" result="shape"/>
            <feColorMatrix in="SourceAlpha" type="matrix" values="0 0 0 0 0 0 0 0 0 0 0 0 0 0 0 0 0 0 127 0" result="hardAlpha"/>
            <feOffset dx="0.45" dy="0.45"/>
            <feGaussianBlur stdDeviation="0.45"/>
            <feComposite in2="hardAlpha" operator="arithmetic" k2="-1" k3="1"/>
            <feColorMatrix type="matrix" values="0 0 0 0 0.886275 0 0 0 0 0.662745 0 0 0 0 0.235294 0 0 0 1 0"/>
            <feBlend mode="normal" in2="shape" result="effect1_innerShadow_1613_5424"/>
            <feColorMatrix in="SourceAlpha" type="matrix" values="0 0 0 0 0 0 0 0 0 0 0 0 0 0 0 0 0 0 127 0" result="hardAlpha"/>
            <feOffset dx="0.45" dy="-0.45"/>
            <feGaussianBlur stdDeviation="0.45"/>
            <feComposite in2="hardAlpha" operator="arithmetic" k2="-1" k3="1"/>
            <feColorMatrix type="matrix" values="0 0 0 0 0.956863 0 0 0 0 0.607843 0 0 0 0 0.294118 0 0 0 1 0"/>
            <feBlend mode="normal" in2="effect1_innerShadow_1613_5424" result="effect2_innerShadow_1613_5424"/>
            <feColorMatrix in="SourceAlpha" type="matrix" values="0 0 0 0 0 0 0 0 0 0 0 0 0 0 0 0 0 0 127 0" result="hardAlpha"/>
            <feOffset dy="-0.45"/>
            <feGaussianBlur stdDeviation="0.45"/>
            <feComposite in2="hardAlpha" operator="arithmetic" k2="-1" k3="1"/>
            <feColorMatrix type="matrix" values="0 0 0 0 0.956863 0 0 0 0 0.607843 0 0 0 0 0.294118 0 0 0 1 0"/>
            <feBlend mode="normal" in2="effect2_innerShadow_1613_5424" result="effect3_innerShadow_1613_5424"/>
            <feColorMatrix in="SourceAlpha" type="matrix" values="0 0 0 0 0 0 0 0 0 0 0 0 0 0 0 0 0 0 127 0" result="hardAlpha"/>
            <feOffset dx="-0.45" dy="0.45"/>
            <feGaussianBlur stdDeviation="0.45"/>
            <feComposite in2="hardAlpha" operator="arithmetic" k2="-1" k3="1"/>
            <feColorMatrix type="matrix" values="0 0 0 0 1 0 0 0 0 0.882353 0 0 0 0 0.337255 0 0 0 1 0"/>
            <feBlend mode="normal" in2="effect3_innerShadow_1613_5424" result="effect4_innerShadow_1613_5424"/>
        </filter>
        <filter id="filter2_f_1613_5424" x="3.58096" y="2.98626" width="8.52559" height="9.17924" filterUnits="userSpaceOnUse" color-interpolation-filters="sRGB">
            <feFlood flood-opacity="0" result="BackgroundImageFix"/>
            <feBlend mode="normal" in="SourceGraphic" in2="BackgroundImageFix" result="shape"/>
            <feGaussianBlur stdDeviation="0.45" result="effect1_foregroundBlur_1613_5424"/>
        </filter>
        <filter id="filter3_ii_1613_5424" x="4.97412" y="3.37042" width="6.2875" height="3.16458" filterUnits="userSpaceOnUse" color-interpolation-filters="sRGB">
            <feFlood flood-opacity="0" result="BackgroundImageFix"/>
            <feBlend mode="normal" in="SourceGraphic" in2="BackgroundImageFix" result="shape"/>
            <feColorMatrix in="SourceAlpha" type="matrix" values="0 0 0 0 0 0 0 0 0 0 0 0 0 0 0 0 0 0 127 0" result="hardAlpha"/>
            <feOffset dy="-0.375"/>
            <feGaussianBlur stdDeviation="0.375"/>
            <feComposite in2="hardAlpha" operator="arithmetic" k2="-1" k3="1"/>
            <feColorMatrix type="matrix" values="0 0 0 0 0.980392 0 0 0 0 0.647059 0 0 0 0 0.172549 0 0 0 1 0"/>
            <feBlend mode="normal" in2="shape" result="effect1_innerShadow_1613_5424"/>
            <feColorMatrix in="SourceAlpha" type="matrix" values="0 0 0 0 0 0 0 0 0 0 0 0 0 0 0 0 0 0 127 0" result="hardAlpha"/>
            <feOffset dx="0.225" dy="0.375"/>
            <feGaussianBlur stdDeviation="0.375"/>
            <feComposite in2="hardAlpha" operator="arithmetic" k2="-1" k3="1"/>
            <feColorMatrix type="matrix" values="0 0 0 0 0.980392 0 0 0 0 0.647059 0 0 0 0 0.172549 0 0 0 1 0"/>
            <feBlend mode="normal" in2="effect1_innerShadow_1613_5424" result="effect2_innerShadow_1613_5424"/>
        </filter>
        <filter id="filter4_ii_1613_5424" x="4.2627" y="9.582" width="7.47559" height="1.918" filterUnits="userSpaceOnUse" color-interpolation-filters="sRGB">
            <feFlood flood-opacity="0" result="BackgroundImageFix"/>
            <feBlend mode="normal" in="SourceGraphic" in2="BackgroundImageFix" result="shape"/>
            <feColorMatrix in="SourceAlpha" type="matrix" values="0 0 0 0 0 0 0 0 0 0 0 0 0 0 0 0 0 0 127 0" result="hardAlpha"/>
            <feOffset dx="0.375" dy="-0.375"/>
            <feGaussianBlur stdDeviation="0.3"/>
            <feComposite in2="hardAlpha" operator="arithmetic" k2="-1" k3="1"/>
            <feColorMatrix type="matrix" values="0 0 0 0 0.992157 0 0 0 0 0.658824 0 0 0 0 0.0705882 0 0 0 1 0"/>
            <feBlend mode="normal" in2="shape" result="effect1_innerShadow_1613_5424"/>
            <feColorMatrix in="SourceAlpha" type="matrix" values="0 0 0 0 0 0 0 0 0 0 0 0 0 0 0 0 0 0 127 0" result="hardAlpha"/>
            <feOffset dx="-0.375" dy="0.375"/>
            <feGaussianBlur stdDeviation="0.3"/>
            <feComposite in2="hardAlpha" operator="arithmetic" k2="-1" k3="1"/>
            <feColorMatrix type="matrix" values="0 0 0 0 1 0 0 0 0 0.8 0 0 0 0 0.290196 0 0 0 1 0"/>
            <feBlend mode="normal" in2="effect1_innerShadow_1613_5424" result="effect2_innerShadow_1613_5424"/>
        </filter>
        <linearGradient id="paint0_linear_1613_5424" x1="5.7815" y1="10.926" x2="11.6565" y2="3.5195" gradientUnits="userSpaceOnUse">
            <stop stop-color="#F19D48"/>
            <stop offset="1" stop-color="#E89A44"/>
        </linearGradient>
        <linearGradient id="paint1_linear_1613_5424" x1="8.00012" y1="1.2225" x2="8.00012" y2="15.1915" gradientUnits="userSpaceOnUse">
            <stop stop-color="#FFC444"/>
            <stop offset="1" stop-color="#FFC24B"/>
        </linearGradient>
        <linearGradient id="paint2_linear_1613_5424" x1="9.65662" y1="4.6445" x2="9.45312" y2="4.953" gradientUnits="userSpaceOnUse">
            <stop offset="0.459" stop-color="#FFCA3F"/>
            <stop offset="1" stop-color="#FFCA3F" stop-opacity="0"/>
        </linearGradient>
        <linearGradient id="paint3_linear_1613_5424" x1="5.26538" y1="7.5295" x2="5.65638" y2="7.5295" gradientUnits="userSpaceOnUse">
            <stop offset="0.167" stop-color="#FFB33B"/>
            <stop offset="1" stop-color="#FFC047"/>
        </linearGradient>
        <linearGradient id="paint4_linear_1613_5424" x1="5.99738" y1="8.343" x2="5.80438" y2="8.343" gradientUnits="userSpaceOnUse">
            <stop offset="0.067" stop-color="#FFC34C"/>
            <stop offset="1" stop-color="#FFC34C" stop-opacity="0"/>
        </linearGradient>
        <linearGradient id="paint5_linear_1613_5424" x1="6.87525" y1="7.5295" x2="7.26575" y2="7.5295" gradientUnits="userSpaceOnUse">
            <stop offset="0.167" stop-color="#FFB33B"/>
            <stop offset="1" stop-color="#FFC047"/>
        </linearGradient>
        <linearGradient id="paint6_linear_1613_5424" x1="7.60675" y1="8.343" x2="7.41425" y2="8.343" gradientUnits="userSpaceOnUse">
            <stop offset="0.067" stop-color="#FFC34C"/>
            <stop offset="1" stop-color="#FFC34C" stop-opacity="0"/>
        </linearGradient>
        <linearGradient id="paint7_linear_1613_5424" x1="8.48462" y1="7.5295" x2="8.87512" y2="7.5295" gradientUnits="userSpaceOnUse">
            <stop offset="0.167" stop-color="#FFB33B"/>
            <stop offset="1" stop-color="#FFC047"/>
        </linearGradient>
        <linearGradient id="paint8_linear_1613_5424" x1="9.21612" y1="8.343" x2="9.02362" y2="8.343" gradientUnits="userSpaceOnUse">
            <stop offset="0.067" stop-color="#FFC34C"/>
            <stop offset="1" stop-color="#FFC34C" stop-opacity="0"/>
        </linearGradient>
        <linearGradient id="paint9_linear_1613_5424" x1="10.094" y1="7.5295" x2="10.4845" y2="7.5295" gradientUnits="userSpaceOnUse">
            <stop offset="0.167" stop-color="#FFB33B"/>
            <stop offset="1" stop-color="#FFC047"/>
        </linearGradient>
        <linearGradient id="paint10_linear_1613_5424" x1="10.8255" y1="8.343" x2="10.633" y2="8.343" gradientUnits="userSpaceOnUse">
            <stop offset="0.067" stop-color="#FFC34C"/>
            <stop offset="1" stop-color="#FFC34C" stop-opacity="0"/>
        </linearGradient>
    </defs>
</svg>
