<svg width="48" height="48" viewBox="0 0 48 48" fill="none" xmlns="http://www.w3.org/2000/svg">
    <path d="M24.4878 7.99995C25.556 8.00583 28.2286 8.03167 31.0682 8.14541L32.075 8.18931C34.934 8.32467 37.7906 8.55591 39.2074 8.95095C41.0972 9.48185 42.5826 11.031 43.0846 12.9946C43.884 16.1128 43.984 22.1988 43.9964 23.6716L43.9982 23.9768V23.9981C43.9982 23.9981 43.9982 24.0056 43.9982 24.0198L43.9964 24.325C43.984 25.7978 43.884 31.8837 43.0846 35.0019C42.5756 36.9727 41.0902 38.522 39.2074 39.0456C37.7906 39.4406 34.934 39.6718 32.075 39.8072L31.0682 39.851C28.2286 39.9648 25.556 39.9906 24.4878 39.9966L24.019 39.9981H23.9982C23.9982 39.9981 23.9912 39.9981 23.9774 39.9981L23.509 39.9966C21.2482 39.9842 11.7954 39.882 8.78902 39.0456C6.8992 38.5146 5.41384 36.9655 4.91174 35.0019C4.1124 31.8837 4.01248 25.7978 4 24.325V23.6716C4.01248 22.1988 4.1124 16.1128 4.91174 12.9946C5.4208 11.0237 6.90616 9.47459 8.78902 8.95095C11.7954 8.11441 21.2482 8.01239 23.509 7.99995H24.4878ZM19.9982 16.9982V30.9981L31.9982 23.9981L19.9982 16.9982Z" fill="#FCFCFC"/>
</svg>
