<svg width="430" height="577" viewBox="0 0 430 577" fill="none" xmlns="http://www.w3.org/2000/svg">
    <g opacity="0.49" filter="url(#filter0_f_750_5128)">
        <path fill-rule="evenodd" clip-rule="evenodd" d="M199.382 329.922C247.575 330.275 299.841 306.864 338.335 335.876C381.633 368.509 401.323 426.046 398.812 480.229C396.225 536.032 369.638 589.975 325.001 623.532C282.505 655.48 226.148 658.619 173.805 649.386C126.59 641.058 84.7437 614.842 56.3994 576.155C30.0375 540.174 24.0683 494.982 28.1261 450.551C32.129 406.722 42.5485 359.311 78.5174 333.975C112.785 309.838 157.477 329.616 199.382 329.922Z" fill="url(#paint0_linear_750_5128)"/>
    </g>
    <defs>
        <filter id="filter0_f_750_5128" x="-293.431" y="0.930267" width="1012.86" height="973.386" filterUnits="userSpaceOnUse" color-interpolation-filters="sRGB">
            <feFlood flood-opacity="0" result="BackgroundImageFix"/>
            <feBlend mode="normal" in="SourceGraphic" in2="BackgroundImageFix" result="shape"/>
            <feGaussianBlur stdDeviation="160.2" result="effect1_foregroundBlur_750_5128"/>
        </filter>
        <linearGradient id="paint0_linear_750_5128" x1="-93.6114" y1="152.968" x2="455.349" y2="863.731" gradientUnits="userSpaceOnUse">
            <stop stop-color="#6857FD"/>
            <stop offset="1" stop-color="#3E3497"/>
        </linearGradient>
    </defs>
</svg>
