<svg width="430" height="569" viewBox="0 0 430 569" fill="none" xmlns="http://www.w3.org/2000/svg">
    <g opacity="0.49" filter="url(#filter0_f_1_35405)">
        <path fill-rule="evenodd" clip-rule="evenodd" d="M352.101 337.117C400.169 333.622 450.399 306.114 491.086 331.962C536.85 361.035 561.07 416.818 562.89 471.028C564.765 526.859 542.568 582.752 500.751 619.765C460.941 655.002 405.014 662.629 352.101 657.603C304.372 653.07 260.567 630.276 229.226 593.975C200.076 560.212 190.519 515.641 191.018 471.028C191.511 427.02 198.113 378.928 231.945 350.802C264.178 324.007 310.306 340.155 352.101 337.117Z" fill="url(#paint0_linear_1_35405)"/>
    </g>
    <defs>
        <filter id="filter0_f_1_35405" x="-129.4" y="0.600006" width="1012.8" height="978.8" filterUnits="userSpaceOnUse" color-interpolation-filters="sRGB">
            <feFlood flood-opacity="0" result="BackgroundImageFix"/>
            <feBlend mode="normal" in="SourceGraphic" in2="BackgroundImageFix" result="shape"/>
            <feGaussianBlur stdDeviation="160.2" result="effect1_foregroundBlur_1_35405"/>
        </filter>
        <linearGradient id="paint0_linear_1_35405" x1="45.92" y1="184.11" x2="649.854" y2="848.794" gradientUnits="userSpaceOnUse">
            <stop stop-color="#6857FD"/>
            <stop offset="1" stop-color="#3E3497"/>
        </linearGradient>
    </defs>
</svg>
