<svg width="24" height="24" viewBox="0 0 24 24" fill="none" xmlns="http://www.w3.org/2000/svg">
    <path d="M14.2495 2.62502C13.5103 2.62304 12.778 2.76757 12.095 3.05027C11.4119 3.33296 10.7917 3.74821 10.27 4.27202L3.37755 11.166C3.1661 11.3771 3.04716 11.6635 3.04688 11.9622C3.04659 12.261 3.165 12.5476 3.37605 12.759C3.58709 12.9705 3.87349 13.0894 4.17224 13.0897C4.47098 13.09 4.7576 12.9716 4.96905 12.7605L11.8645 5.86352C12.506 5.2738 13.3505 4.95477 14.2217 4.97306C15.0928 4.99136 15.9232 5.34558 16.5394 5.96171C17.1555 6.57784 17.5097 7.40823 17.528 8.27938C17.5463 9.15053 17.2273 9.99506 16.6375 10.6365L8.68305 18.591C8.46978 18.7897 8.18771 18.8979 7.89626 18.8928C7.60481 18.8876 7.32673 18.7696 7.12061 18.5635C6.91449 18.3573 6.79643 18.0793 6.79128 17.7878C6.78614 17.4964 6.89433 17.2143 7.09305 17.001L15.0475 9.04652C15.259 8.83528 15.3779 8.54869 15.378 8.2498C15.3781 7.95091 15.2595 7.66421 15.0483 7.45277C14.8371 7.24133 14.5505 7.12246 14.2516 7.12232C13.9527 7.12218 13.666 7.24078 13.4545 7.45202L5.49855 15.4095C4.90883 16.051 4.58979 16.8955 4.60809 17.7667C4.62639 18.6378 4.98061 19.4682 5.59674 20.0843C6.21287 20.7005 7.04326 21.0547 7.91441 21.073C8.78556 21.0913 9.63009 20.7722 10.2715 20.1825L18.226 12.228C18.7499 11.7067 19.1654 11.0867 19.4483 10.404C19.7313 9.72118 19.8761 8.98911 19.8745 8.25002C19.873 6.75866 19.2798 5.32885 18.2253 4.2743C17.1707 3.21975 15.7409 2.62661 14.2495 2.62502Z" fill="#FCFCFC"/>
</svg>
