<svg width="56" height="56" viewBox="0 0 56 56" fill="none" xmlns="http://www.w3.org/2000/svg">
    <path d="M28.0001 4.66666C40.8866 4.66666 51.3334 15.1133 51.3334 28C51.3334 40.8865 40.8866 51.3333 28.0001 51.3333C15.1134 51.3333 4.66675 40.8865 4.66675 28C4.66675 15.1133 15.1134 4.66666 28.0001 4.66666ZM37.3434 30.048C36.5375 28.8244 35.9561 27.9407 33.7452 28.2912C29.5674 28.9543 29.1042 29.6856 28.9047 30.8875L28.8485 31.2534L28.7918 31.6393C28.5638 33.2332 28.5724 33.8361 29.3042 34.6052C32.2563 37.7025 34.0247 39.935 34.5605 41.2407C34.8221 41.8796 35.4945 43.8086 35.0318 45.7163C37.8869 44.5821 40.4032 42.7775 42.3858 40.4971C42.6429 39.6249 42.8287 38.5387 42.8287 37.2209V36.9768C42.8287 34.8243 42.8287 33.8427 41.3073 32.9733C40.6654 32.6086 40.1864 32.389 39.8026 32.2149C38.9458 31.8253 38.3785 31.5693 37.613 30.4498C37.5217 30.3165 37.4326 30.1835 37.3434 30.048ZM28.0001 8.94443C22.5928 8.94443 17.7115 11.1967 14.2432 14.8142C14.6561 15.101 15.0159 15.5039 15.2631 16.0593C15.7391 17.1273 15.7391 18.2261 15.7391 19.1978C15.7381 19.9645 15.7371 20.6901 15.9832 21.217C16.3204 21.9365 17.7717 22.242 19.0529 22.5105C19.5106 22.6069 19.9826 22.7053 20.412 22.8241C21.5929 23.1521 22.5063 24.2118 23.2386 25.0628C23.5425 25.4172 23.9912 25.938 24.2161 26.0673C24.3335 25.9831 24.7101 25.5752 24.8965 24.9048C25.0384 24.3943 24.998 23.9393 24.7892 23.6934C23.4846 22.1537 23.5555 19.1875 23.9587 18.0949C24.5939 16.3708 26.5779 16.498 28.0281 16.5923C28.569 16.6271 29.0795 16.6605 29.4601 16.6128C30.9125 16.4305 31.3591 14.2225 31.6751 13.79C32.3566 12.8562 34.4417 11.4499 35.7369 10.5806C33.3726 9.5289 30.7546 8.94443 28.0001 8.94443Z" fill="#FCFCFC"/>
</svg>
