<svg width="44" height="44" viewBox="0 0 44 44" fill="none" xmlns="http://www.w3.org/2000/svg">
    <path d="M16.5001 7.33329V5.49996C16.5001 4.48745 17.3209 3.66663 18.3334 3.66663H25.6667C26.6793 3.66663 27.5001 4.48745 27.5001 5.49996V7.33329H33.0001C34.0126 7.33329 34.8334 8.15411 34.8334 9.16663V38.5C34.8334 39.5125 34.0126 40.3333 33.0001 40.3333H11.0001C9.98757 40.3333 9.16675 39.5125 9.16675 38.5V9.16663C9.16675 8.15411 9.98757 7.33329 11.0001 7.33329H16.5001ZM23.8334 22V12.8333L14.6667 25.6666H20.1667V34.8333L29.3334 22H23.8334Z" fill="url(#paint0_linear_1409_4623)"/>
    <defs>
        <linearGradient id="paint0_linear_1409_4623" x1="9.16675" y1="22" x2="32.1363" y2="29.9172" gradientUnits="userSpaceOnUse">
            <stop stop-color="#91BDFF"/>
            <stop offset="1" stop-color="#3152FF"/>
        </linearGradient>
    </defs>
</svg>
