<svg width="44" height="44" viewBox="0 0 44 44" fill="none" xmlns="http://www.w3.org/2000/svg">
    <path d="M21.0834 36.6667L29.9934 18.8284H23.8334V7.33335L14.6667 25.1717H21.0834V36.6667ZM22.0001 3.66669C27.0417 3.66669 31.3501 5.50002 34.9251 9.07502C38.5001 12.65 40.3334 16.9584 40.3334 22C40.3334 27.0417 38.5001 31.35 34.9251 34.925C31.3501 38.5 27.0417 40.3334 22.0001 40.3334C16.9584 40.3334 12.6501 38.5 9.07508 34.925C5.50008 31.35 3.66675 27.0417 3.66675 22C3.66675 16.9584 5.50008 12.65 9.07508 9.07502C12.6501 5.50002 16.9584 3.66669 22.0001 3.66669Z" fill="url(#paint0_linear_3151_124)"/>
    <defs>
        <linearGradient id="paint0_linear_3151_124" x1="3.66675" y1="22" x2="33.2146" y2="36.5496" gradientUnits="userSpaceOnUse">
            <stop stop-color="#91FFE4"/>
            <stop offset="1" stop-color="#31CEFF"/>
        </linearGradient>
    </defs>
</svg>
