<svg width="44" height="44" viewBox="0 0 44 44" fill="none" xmlns="http://www.w3.org/2000/svg">
    <path d="M12.903 8.25C11.0958 9.44453 9.54155 10.9832 8.32887 12.7783M5.84104 18.7165C5.4192 20.8395 5.4192 23.0248 5.84104 25.1478M8.25004 31.097C9.44457 32.9042 10.9833 34.4585 12.7784 35.6712M18.7165 38.159C20.8348 38.5789 23.0149 38.5789 25.1332 38.159M31.097 35.75C32.9042 34.5555 34.4585 33.0168 35.6712 31.2217M38.159 25.2835C38.5809 23.1605 38.5809 20.9752 38.159 18.8522M35.75 12.903C34.5555 11.0958 33.0168 9.54151 31.2217 8.32883M25.2835 5.841C23.1629 5.40705 20.9776 5.39459 18.8522 5.80433M22 14.6667L18.3334 22H25.6667L22 29.3333M22 38.5C26.3761 38.5 30.5729 36.7616 33.6673 33.6673C36.7616 30.5729 38.5 26.3761 38.5 22C38.5 17.6239 36.7616 13.4271 33.6673 10.3327C30.5729 7.23839 26.3761 5.5 22 5.5" stroke="url(#paint0_linear_1409_10018)" stroke-width="3" stroke-linecap="round" stroke-linejoin="round"/>
    <defs>
        <linearGradient id="paint0_linear_1409_10018" x1="5.52466" y1="22" x2="32.1057" y2="35.0789" gradientUnits="userSpaceOnUse">
            <stop stop-color="#FFF491"/>
            <stop offset="1" stop-color="#A4FF31"/>
        </linearGradient>
    </defs>
</svg>
