<svg width="56" height="56" viewBox="0 0 56 56" fill="none" xmlns="http://www.w3.org/2000/svg">
    <path d="M20.7667 44.1773H36.2331C34.7787 47.6651 31.9878 50.456 28.4999 51.9104C25.0121 50.456 22.2212 47.6651 20.7667 44.1773ZM41.7499 32.7043L46.1666 37.7135V41.969H10.8333V37.7135L15.2499 32.7043V19.8857C15.2499 12.1935 20.7805 5.6495 28.4999 3.22424C36.2194 5.6495 41.7499 12.1935 41.7499 19.8857V32.7043ZM28.4999 24.3023C30.9392 24.3023 32.9166 22.325 32.9166 19.8857C32.9166 17.4464 30.9392 15.469 28.4999 15.469C26.0606 15.469 24.0833 17.4464 24.0833 19.8857C24.0833 22.325 26.0606 24.3023 28.4999 24.3023Z" fill="#FCFCFC"/>
</svg>
