<svg width="44" height="44" viewBox="0 0 44 44" fill="none" xmlns="http://www.w3.org/2000/svg">
    <path d="M22.0001 40.3334C11.8749 40.3334 3.66675 32.1252 3.66675 22.0001C3.66675 11.8749 11.8749 3.66675 22.0001 3.66675C32.1252 3.66675 40.3334 11.8749 40.3334 22.0001C40.3334 32.1252 32.1252 40.3334 22.0001 40.3334ZM30.8369 31.3063C33.2985 28.968 34.8334 25.6633 34.8334 22.0001C34.8334 14.9124 29.0877 9.16675 22.0001 9.16675C14.9124 9.16675 9.16675 14.9124 9.16675 22.0001C9.16675 29.0877 14.9124 34.8334 22.0001 34.8334C23.9451 34.8334 25.7888 34.4007 27.4407 33.6265L25.6535 30.4098C24.5343 30.8967 23.2986 31.1667 22.0001 31.1667C16.9375 31.1667 12.8334 27.0626 12.8334 22.0001C12.8334 16.9375 16.9375 12.8334 22.0001 12.8334C27.0626 12.8334 31.1667 16.9375 31.1667 22.0001H25.6667L30.8369 31.3063Z" fill="url(#paint0_linear_1409_5156)"/>
    <defs>
        <linearGradient id="paint0_linear_1409_5156" x1="-10.6332" y1="-11.1833" x2="55.1834" y2="54.6334" gradientUnits="userSpaceOnUse">
            <stop stop-color="#D2FD57"/>
            <stop offset="1" stop-color="#349785"/>
        </linearGradient>
    </defs>
</svg>
