<svg width="44" height="44" viewBox="0 0 44 44" fill="none" xmlns="http://www.w3.org/2000/svg">
    <path d="M8.8001 18.7C8.80022 17.0553 9.13567 15.4278 9.78595 13.917C10.4362 12.4063 11.3877 11.0439 12.5822 9.91328C13.7767 8.78262 15.1892 7.90736 16.7334 7.34097C18.2776 6.77459 19.921 6.52896 21.5633 6.61911C23.2056 6.70926 24.8123 7.13329 26.2852 7.86529C27.7581 8.59729 29.0663 9.62189 30.1299 10.8765C31.1934 12.1311 31.9901 13.5894 32.4711 15.1623C32.9521 16.7351 33.1074 18.3895 32.9275 20.0244C33.6799 20.3412 34.3641 20.7614 34.9713 21.263C35.1224 20.4314 35.1986 19.5771 35.2001 18.7C35.1989 16.5535 34.7144 14.4348 33.7827 12.5011C32.851 10.5673 31.4959 8.86811 29.8179 7.5295C28.1399 6.19089 26.1821 5.24721 24.0896 4.76844C21.9972 4.28968 19.8238 4.28811 17.7307 4.76386C15.6375 5.23961 13.6784 6.18047 11.9985 7.51666C10.3185 8.85285 8.96098 10.5501 8.02646 12.4825C7.09195 14.4149 6.60445 16.5329 6.60013 18.6794C6.5958 20.8259 7.07477 22.9459 8.0015 24.882C8.5647 24.3379 9.1653 23.8869 9.8033 23.529C9.1409 22.0053 8.79941 20.3615 8.8001 18.7ZM30.8001 18.7C30.8001 18.9464 30.7913 19.1914 30.7737 19.4348L28.5913 19.0542C28.5972 18.9354 28.6001 18.8174 28.6001 18.7C28.5996 17.5261 28.3306 16.3678 27.8138 15.3137C27.297 14.2596 26.546 13.3377 25.6183 12.6183C24.6906 11.899 23.6106 11.4013 22.461 11.1633C21.3115 10.9253 20.1227 10.9533 18.9856 11.2452C17.8485 11.5371 16.7932 12.0852 15.9004 12.8474C15.0076 13.6097 14.3009 14.566 13.8343 15.6433C13.3678 16.7205 13.1537 17.8902 13.2085 19.0629C13.2633 20.2355 13.5855 21.3802 14.1505 22.4092C13.3728 22.4152 12.5987 22.515 11.8449 22.7062C11.2493 21.3585 10.9621 19.8949 11.0041 18.422C11.0462 16.9492 11.4165 15.5043 12.088 14.1928C12.7595 12.8812 13.7152 11.7361 14.8856 10.841C16.0559 9.94583 17.4114 9.32321 18.8529 9.01853C20.2945 8.71385 21.786 8.73479 23.2184 9.07983C24.6509 9.42488 25.9883 10.0853 27.133 11.013C28.2778 11.9406 29.2011 13.1121 29.8355 14.442C30.4699 15.7719 30.7994 17.2266 30.8001 18.7ZM17.6001 16.5C17.6001 15.6248 17.9478 14.7854 18.5666 14.1666C19.1855 13.5477 20.0249 13.2 20.9001 13.2C21.7753 13.2 22.6147 13.5477 23.2336 14.1666C23.8524 14.7854 24.2001 15.6248 24.2001 16.5V21.076L30.6615 22.2068C31.4549 22.3459 32.208 22.6576 32.8676 23.1198C33.5273 23.5819 34.0774 24.1834 34.479 24.8815C34.8807 25.5797 35.1241 26.3576 35.192 27.1602C35.26 27.9627 35.1508 28.7705 34.8723 29.5262L32.7097 35.4002C32.3767 36.3054 31.8116 37.1071 31.071 37.7249C30.3304 38.3428 29.4403 38.755 28.4901 38.9202L25.1527 39.4988C22.8977 39.8904 20.8495 38.4934 19.7957 36.7928C18.3899 34.5356 15.4815 31.4248 9.7791 30.7934C9.62318 30.7761 9.47277 30.7257 9.33795 30.6455C9.20313 30.5653 9.08703 30.4572 8.99744 30.3284C8.90784 30.1996 8.84682 30.0532 8.81848 29.8989C8.79013 29.7446 8.79512 29.586 8.8331 29.4338C9.1565 28.1358 9.7747 27.137 10.6327 26.4418C11.4797 25.7488 12.4873 25.4144 13.4927 25.3066C14.8655 25.157 16.3153 25.4166 17.6001 25.8522V16.5Z" fill="url(#paint0_linear_1409_7366)"/>
    <defs>
        <linearGradient id="paint0_linear_1409_7366" x1="6.6001" y1="21.9867" x2="31.2834" y2="31.8781" gradientUnits="userSpaceOnUse">
            <stop stop-color="#F691FF"/>
            <stop offset="1" stop-color="#C931FF"/>
        </linearGradient>
    </defs>
</svg>
