<svg width="21" height="19" viewBox="0 0 21 19" fill="none" xmlns="http://www.w3.org/2000/svg">
<path d="M18.5049 11.0029V18.0029C18.5049 18.5552 18.0572 19.0029 17.5049 19.0029H3.50488C2.9526 19.0029 2.50488 18.5552 2.50488 18.0029V11.0029H18.5049ZM13.0049 0.00292969C14.9379 0.00292969 16.5049 1.56993 16.5049 3.50293C16.5049 4.04013 16.3839 4.54907 16.1676 5.00397L19.5049 5.00293C20.0572 5.00293 20.5049 5.45064 20.5049 6.00293V9.00292C20.5049 9.55522 20.0572 10.0029 19.5049 10.0029H1.50488C0.952603 10.0029 0.504883 9.55522 0.504883 9.00292V6.00293C0.504883 5.45064 0.952603 5.00293 1.50488 5.00293L4.84219 5.00397C4.62591 4.54907 4.50488 4.04013 4.50488 3.50293C4.50488 1.56993 6.07189 0.00292969 8.00488 0.00292969C8.9849 0.00292969 9.8708 0.40569 10.5061 1.05471C11.139 0.40569 12.0249 0.00292969 13.0049 0.00292969ZM8.00488 2.00293C7.17646 2.00293 6.50488 2.6745 6.50488 3.50293C6.50488 4.28262 7.09977 4.92338 7.86042 4.99606L8.00488 5.00293H9.5049V3.50293C9.5049 2.72323 8.91 2.08248 8.14934 2.00979L8.00488 2.00293ZM13.0049 2.00293L12.8604 2.00979C12.1473 2.07794 11.5799 2.64536 11.5117 3.35847L11.5049 3.50293V5.00293H13.0049L13.1493 4.99606C13.91 4.92338 14.5049 4.28262 14.5049 3.50293C14.5049 2.72323 13.91 2.08248 13.1493 2.00979L13.0049 2.00293Z" fill="white"/>
</svg>
