<svg width="33" height="32" viewBox="0 0 33 32" fill="none" xmlns="http://www.w3.org/2000/svg">
    <path d="M22.6255 9.93997C22.916 9.67175 23.3027 9.52347 23.7038 9.52641C24.1049 9.52935 24.4892 9.68329 24.7755 9.95575C25.0619 10.2282 25.2278 10.5979 25.2384 10.9867C25.249 11.3756 25.1034 11.7532 24.8324 12.04L16.603 22.02C16.4615 22.1678 16.2907 22.2864 16.1008 22.3687C15.911 22.451 15.706 22.4954 15.498 22.4991C15.2901 22.5029 15.0835 22.4659 14.8906 22.3904C14.6977 22.315 14.5225 22.2026 14.3755 22.06L8.91812 16.768C8.76614 16.6306 8.64424 16.465 8.55969 16.2811C8.47515 16.0971 8.42969 15.8984 8.42602 15.697C8.42236 15.4956 8.46056 15.2956 8.53836 15.1088C8.61616 14.922 8.73196 14.7523 8.87885 14.6099C9.02574 14.4675 9.20071 14.3552 9.39332 14.2797C9.58594 14.2043 9.79225 14.1672 9.99995 14.1708C10.2076 14.1743 10.4125 14.2184 10.6022 14.3004C10.792 14.3824 10.9628 14.5006 11.1044 14.648L15.4232 18.834L22.5863 9.98397L22.6255 9.93997Z" fill="#6857FD"/>
</svg>
