<svg width="56" height="56" viewBox="0 0 56 56" fill="none" xmlns="http://www.w3.org/2000/svg">
    <path d="M28.0001 51.3333C15.1134 51.3333 4.66675 40.8865 4.66675 28C4.66675 15.1133 15.1134 4.66666 28.0001 4.66666C40.8866 4.66666 51.3334 15.1133 51.3334 28C51.3334 40.8865 40.8866 51.3333 28.0001 51.3333ZM25.6667 35V39.6667H30.3334V35H25.6667ZM30.3334 31.1619C33.7067 30.1579 36.1667 27.0328 36.1667 23.3333C36.1667 18.823 32.5104 15.1667 28.0001 15.1667C24.0381 15.1667 20.7349 17.9881 19.9905 21.7314L24.5673 22.6468C24.8865 21.0425 26.3021 19.8333 28.0001 19.8333C29.933 19.8333 31.5001 21.4003 31.5001 23.3333C31.5001 25.2663 29.933 26.8333 28.0001 26.8333C26.7114 26.8333 25.6667 27.878 25.6667 29.1667V32.6667H30.3334V31.1619Z" fill="#FCFCFC"/>
</svg>
