<svg width="430" height="878" viewBox="0 0 430 878" fill="none" xmlns="http://www.w3.org/2000/svg">
    <g opacity="0.49" filter="url(#filter0_f_1_34439)">
        <path fill-rule="evenodd" clip-rule="evenodd" d="M184.368 227.457C248.329 222.804 315.169 186.182 369.308 220.594C430.204 259.301 462.431 333.568 464.854 405.741C467.349 480.073 437.812 554.486 382.169 603.764C329.196 650.677 254.777 660.831 184.368 654.14C120.858 648.105 62.569 617.758 20.8647 569.428C-17.9227 524.478 -30.6395 465.138 -29.9755 405.741C-29.3205 347.15 -20.5348 283.123 24.4838 245.678C67.3734 210.004 128.753 231.503 184.368 227.457Z" fill="url(#paint0_linear_1_34439)"/>
    </g>
    <defs>
        <filter id="filter0_f_1_34439" x="-350.4" y="-114.4" width="1135.8" height="1090.8" filterUnits="userSpaceOnUse" color-interpolation-filters="sRGB">
            <feFlood flood-opacity="0" result="BackgroundImageFix"/>
            <feBlend mode="normal" in="SourceGraphic" in2="BackgroundImageFix" result="shape"/>
            <feGaussianBlur stdDeviation="160.2" result="effect1_foregroundBlur_1_34439"/>
        </filter>
        <linearGradient id="paint0_linear_1_34439" x1="-223.05" y1="23.75" x2="581.045" y2="908.254" gradientUnits="userSpaceOnUse">
            <stop stop-color="#6857FD"/>
            <stop offset="1" stop-color="#3E3497"/>
        </linearGradient>
    </defs>
</svg>
