<svg width="42" height="42" viewBox="0 0 42 42" fill="none" xmlns="http://www.w3.org/2000/svg">
    <path d="M12.3164 7.875C10.5914 9.01524 9.10774 10.484 7.95019 12.1975M5.57544 17.8657C5.17277 19.8923 5.17277 21.9782 5.57544 24.0048M7.87494 29.6835C9.01518 31.4086 10.4839 32.8922 12.1974 34.0498M17.8657 36.4245C19.8877 36.8253 21.9687 36.8253 23.9907 36.4245M29.6834 34.125C31.4085 32.9848 32.8921 31.516 34.0497 29.8025M36.4244 24.1343C36.8271 22.1077 36.8271 20.0218 36.4244 17.9952M34.1249 12.3165C32.9847 10.5914 31.5159 9.1078 29.8024 7.95025M24.1342 5.5755C22.11 5.16127 20.024 5.14938 17.9952 5.5405M20.9999 14L17.4999 21H24.4999L20.9999 28M20.9999 36.75C25.1771 36.75 29.1832 35.0906 32.1369 32.1369C35.0906 29.1832 36.7499 25.1772 36.7499 21C36.7499 16.8228 35.0906 12.8168 32.1369 9.86307C29.1832 6.90937 25.1771 5.25 20.9999 5.25" stroke="#FCFCFC" stroke-width="3" stroke-linecap="round" stroke-linejoin="round"/>
</svg>
