<svg width="42" height="42" viewBox="0 0 24 24" fill="none" xmlns="http://www.w3.org/2000/svg">
    <path d="M4.79997 10.2C4.80004 9.30281 4.98301 8.4151 5.33771 7.59105C5.69241 6.767 6.21139 6.02391 6.86295 5.40719C7.5145 4.79046 8.28495 4.31305 9.12722 4.00411C9.9695 3.69517 10.8659 3.5612 11.7617 3.61037C12.6575 3.65954 13.5339 3.89083 14.3373 4.2901C15.1407 4.68937 15.8542 5.24825 16.4344 5.93258C17.0145 6.61692 17.4491 7.41234 17.7114 8.27026C17.9738 9.12819 18.0585 10.0306 17.9604 10.9224C18.3708 11.0952 18.744 11.3244 19.0752 11.598C19.1576 11.1444 19.1992 10.6784 19.2 10.2C19.1993 9.02913 18.9351 7.87348 18.4268 6.8187C17.9186 5.76393 17.1795 4.8371 16.2642 4.10694C15.3489 3.37679 14.281 2.86206 13.1397 2.60091C11.9984 2.33977 10.8129 2.33891 9.6712 2.59841C8.52949 2.85791 7.46085 3.37111 6.54453 4.09994C5.62821 4.82877 4.88773 5.75454 4.37799 6.80858C3.86826 7.86262 3.60235 9.01789 3.59999 10.1887C3.59763 11.3595 3.85889 12.5159 4.36437 13.572C4.67157 13.2752 4.99917 13.0292 5.34717 12.834C4.98587 12.0028 4.7996 11.1062 4.79997 10.2ZM16.8 10.2C16.8 10.3344 16.7952 10.468 16.7856 10.6008L15.5952 10.3932C15.5984 10.3284 15.6 10.264 15.6 10.2C15.5997 9.55962 15.453 8.92782 15.1711 8.35287C14.8892 7.77792 14.4796 7.27503 13.9735 6.88267C13.4675 6.4903 12.8784 6.21883 12.2514 6.08902C11.6243 5.95921 10.9759 5.9745 10.3557 6.13371C9.73547 6.29292 9.15985 6.59185 8.67286 7.00763C8.18587 7.42341 7.8004 7.94504 7.54591 8.53263C7.29142 9.12023 7.17466 9.75824 7.20455 10.3979C7.23444 11.0375 7.4102 11.6619 7.71837 12.2232C7.29419 12.2264 6.87194 12.2808 6.46077 12.3852C6.13591 11.65 5.97924 10.8517 6.00217 10.0483C6.02511 9.24496 6.22708 8.45684 6.59335 7.74146C6.95962 7.02608 7.48096 6.40148 8.11934 5.91321C8.75771 5.42495 9.49702 5.08533 10.2833 4.91914C11.0697 4.75295 11.8832 4.76438 12.6645 4.95258C13.4459 5.14079 14.1754 5.50103 14.7998 6.00703C15.4242 6.51302 15.9278 7.15202 16.2738 7.8774C16.6198 8.60279 16.7996 9.39626 16.8 10.2ZM9.59997 8.99996C9.59997 8.52257 9.78962 8.06473 10.1272 7.72717C10.4647 7.3896 10.9226 7.19996 11.4 7.19996C11.8774 7.19996 12.3352 7.3896 12.6728 7.72717C13.0103 8.06473 13.2 8.52257 13.2 8.99996V11.496L16.7244 12.1128C17.1571 12.1886 17.5679 12.3586 17.9277 12.6107C18.2875 12.8628 18.5876 13.1909 18.8067 13.5717C19.0258 13.9525 19.1585 14.3768 19.1956 14.8146C19.2326 15.2524 19.1731 15.6929 19.0212 16.1052L17.8416 19.3092C17.66 19.8029 17.3517 20.2402 16.9477 20.5772C16.5438 20.9142 16.0583 21.139 15.54 21.2292L13.7196 21.5448C12.4896 21.7584 11.3724 20.9964 10.7976 20.0688C10.0308 18.8376 8.44437 17.1408 5.33397 16.7964C5.24893 16.7869 5.16689 16.7594 5.09335 16.7157C5.01981 16.6719 4.95649 16.6129 4.90762 16.5427C4.85874 16.4725 4.82546 16.3926 4.81 16.3084C4.79454 16.2243 4.79726 16.1378 4.81797 16.0548C4.99437 15.3468 5.33157 14.802 5.79957 14.4228C6.26157 14.0448 6.81117 13.8624 7.35957 13.8036C8.10837 13.722 8.89917 13.8636 9.59997 14.1012V8.99996Z" fill="#FCFCFC"/>
</svg>
