<svg width="430" height="618" viewBox="0 0 430 618" fill="none" xmlns="http://www.w3.org/2000/svg">
    <g opacity="0.49" filter="url(#filter0_f_739_11825)">
        <path fill-rule="evenodd" clip-rule="evenodd" d="M51.8992 280.883C3.83144 284.378 -46.3994 311.886 -87.0859 286.038C-132.85 256.965 -157.07 201.182 -158.89 146.972C-160.765 91.1409 -138.568 35.248 -96.7511 -1.76498C-56.9409 -37.0021 -1.01422 -44.629 51.8992 -39.6031C99.6278 -35.0697 143.433 -12.2763 174.774 24.0251C203.924 57.7876 213.481 102.359 212.982 146.972C212.489 190.981 205.887 239.072 172.055 267.198C139.822 293.993 93.6944 277.845 51.8992 280.883Z" fill="url(#paint0_linear_739_11825)"/>
    </g>
    <defs>
        <filter id="filter0_f_739_11825" x="-479.4" y="-361.4" width="1012.8" height="978.8" filterUnits="userSpaceOnUse" color-interpolation-filters="sRGB">
            <feFlood flood-opacity="0" result="BackgroundImageFix"/>
            <feBlend mode="normal" in="SourceGraphic" in2="BackgroundImageFix" result="shape"/>
            <feGaussianBlur stdDeviation="160.2" result="effect1_foregroundBlur_739_11825"/>
        </filter>
        <linearGradient id="paint0_linear_739_11825" x1="358.08" y1="433.89" x2="-245.854" y2="-230.794" gradientUnits="userSpaceOnUse">
            <stop stop-color="#6857FD"/>
            <stop offset="1" stop-color="#3E3497"/>
        </linearGradient>
    </defs>
</svg>
