<svg width="33" height="32" viewBox="0 0 33 32" fill="none" xmlns="http://www.w3.org/2000/svg">
    <g filter="url(#filter0_i_593_26747)">
        <path d="M16.5 27.289C22.5061 27.289 27.375 22.4201 27.375 16.414C27.375 10.4079 22.5061 5.539 16.5 5.539C10.4939 5.539 5.625 10.4079 5.625 16.414C5.625 22.4201 10.4939 27.289 16.5 27.289Z" fill="url(#paint0_linear_593_26747)"/>
    </g>
    <g filter="url(#filter1_iiii_593_26747)">
        <path fill-rule="evenodd" clip-rule="evenodd" d="M16.4998 30.383C24.2148 30.383 30.4688 24.129 30.4688 16.414C30.4688 8.69901 24.2148 2.44501 16.4998 2.44501C8.78476 2.44501 2.53076 8.70001 2.53076 16.415C2.53076 24.129 8.78476 30.383 16.4998 30.383ZM16.4998 27.289C22.5058 27.289 27.3748 22.42 27.3748 16.414C27.3748 10.408 22.5058 5.54001 16.4998 5.54001C10.4938 5.54001 5.62476 10.408 5.62476 16.414C5.62476 22.42 10.4938 27.29 16.4998 27.29" fill="url(#paint1_linear_593_26747)"/>
    </g>
    <g filter="url(#filter2_f_593_26747)">
        <path fill-rule="evenodd" clip-rule="evenodd" d="M10.4126 11.315C10.3273 11.3693 10.2571 11.4442 10.2085 11.5328C10.1599 11.6214 10.1344 11.7209 10.1346 11.822V12.102C10.1346 12.2239 10.1791 12.3415 10.2598 12.4328C10.3404 12.5242 10.4517 12.5829 10.5726 12.598V20.195H10.4646C10.3096 20.1951 10.1591 20.2466 10.0366 20.3415C9.91411 20.4363 9.82651 20.5691 9.78756 20.719L9.47756 21.905C9.45831 21.979 9.45626 22.0563 9.47156 22.1312C9.48687 22.206 9.51913 22.2764 9.56587 22.3368C9.6126 22.3973 9.67257 22.4462 9.74116 22.4799C9.80976 22.5135 9.88515 22.531 9.96156 22.531H22.4116C22.4868 22.5311 22.5611 22.5142 22.6289 22.4816C22.6967 22.449 22.7563 22.4016 22.8032 22.3427C22.8501 22.2839 22.8831 22.2153 22.8998 22.1419C22.9165 22.0685 22.9164 21.9923 22.8996 21.919L22.6276 20.738C22.592 20.5835 22.5051 20.4457 22.381 20.3471C22.2569 20.2484 22.1031 20.1948 21.9446 20.195H21.8376V12.595C21.955 12.5765 22.0621 12.5166 22.1394 12.4263C22.2168 12.3359 22.2594 12.2209 22.2596 12.102V11.822C22.2598 11.721 22.2345 11.6216 22.1861 11.533C22.1377 11.4443 22.0677 11.3694 21.9826 11.315L16.5996 7.89001C16.4791 7.81329 16.3393 7.77254 16.1966 7.77254C16.0538 7.77254 15.914 7.81329 15.7936 7.89001L10.4126 11.315ZM20.2286 20.195V12.602H18.6186V20.195H20.2286ZM17.0096 20.195V12.602H15.3996V20.195H17.0096ZM13.7906 20.195V12.602H12.1816V20.195H13.7906Z" fill="#DC7B3C"/>
    </g>
    <g filter="url(#filter3_ii_593_26747)">
        <path d="M10.4478 11.54C10.4477 11.4392 10.473 11.34 10.5215 11.2515C10.5699 11.1631 10.6398 11.0883 10.7248 11.034L16.1078 7.60801C16.2281 7.5315 16.3677 7.49086 16.5103 7.49086C16.6528 7.49086 16.7924 7.5315 16.9128 7.60801L22.2948 11.034C22.3799 11.0882 22.45 11.1629 22.4986 11.2514C22.5472 11.3398 22.5727 11.4391 22.5728 11.54V11.82C22.5728 11.9526 22.5201 12.0798 22.4263 12.1736C22.3325 12.2673 22.2054 12.32 22.0728 12.32H10.9478C10.8151 12.32 10.688 12.2673 10.5942 12.1736C10.5004 12.0798 10.4478 11.9526 10.4478 11.82V11.54Z" fill="#FFC546"/>
    </g>
    <path d="M10.4478 11.54C10.4477 11.4392 10.473 11.34 10.5215 11.2515C10.5699 11.1631 10.6398 11.0883 10.7248 11.034L16.1078 7.60801C16.2281 7.5315 16.3677 7.49086 16.5103 7.49086C16.6528 7.49086 16.7924 7.5315 16.9128 7.60801L22.2948 11.034C22.3799 11.0882 22.45 11.1629 22.4986 11.2514C22.5472 11.3398 22.5727 11.4391 22.5728 11.54V11.82C22.5728 11.9526 22.5201 12.0798 22.4263 12.1736C22.3325 12.2673 22.2054 12.32 22.0728 12.32H10.9478C10.8151 12.32 10.688 12.2673 10.5942 12.1736C10.5004 12.0798 10.4478 11.9526 10.4478 11.82V11.54Z" fill="url(#paint2_linear_593_26747)"/>
    <path d="M10.8848 12.117C10.8848 12.0507 10.9111 11.9871 10.958 11.9402C11.0049 11.8933 11.0685 11.867 11.1348 11.867H12.2448C12.3111 11.867 12.3747 11.8933 12.4215 11.9402C12.4684 11.9871 12.4948 12.0507 12.4948 12.117V20.133H10.8848V12.117Z" fill="url(#paint3_linear_593_26747)"/>
    <path d="M10.8848 12.117C10.8848 12.0507 10.9111 11.9871 10.958 11.9402C11.0049 11.8933 11.0685 11.867 11.1348 11.867H12.2448C12.3111 11.867 12.3747 11.8933 12.4215 11.9402C12.4684 11.9871 12.4948 12.0507 12.4948 12.117V20.133H10.8848V12.117Z" fill="url(#paint4_linear_593_26747)"/>
    <path d="M14.104 11.867H15.713V20.133H14.104V11.867Z" fill="url(#paint5_linear_593_26747)"/>
    <path d="M14.104 11.867H15.713V20.133H14.104V11.867Z" fill="url(#paint6_linear_593_26747)"/>
    <path d="M17.3228 11.867H18.9318V20.133H17.3228V11.867Z" fill="url(#paint7_linear_593_26747)"/>
    <path d="M17.3228 11.867H18.9318V20.133H17.3228V11.867Z" fill="url(#paint8_linear_593_26747)"/>
    <path d="M20.5405 11.867H22.1495V20.133H20.5405V11.867Z" fill="url(#paint9_linear_593_26747)"/>
    <path d="M20.5405 11.867H22.1495V20.133H20.5405V11.867Z" fill="url(#paint10_linear_593_26747)"/>
    <g filter="url(#filter4_ii_593_26747)">
        <path d="M10.0996 20.437C10.1387 20.2871 10.2266 20.1544 10.3493 20.0597C10.472 19.9651 10.6226 19.9138 10.7776 19.914H22.2575C22.4159 19.914 22.5695 19.9678 22.6934 20.0664C22.8173 20.165 22.904 20.3027 22.9396 20.457L23.2125 21.637C23.2296 21.7104 23.2298 21.7867 23.2132 21.8602C23.1966 21.9337 23.1636 22.0025 23.1167 22.0614C23.0697 22.1204 23.0101 22.1679 22.9422 22.2006C22.8743 22.2333 22.7999 22.2501 22.7246 22.25H10.2745C10.1981 22.25 10.1227 22.2325 10.0542 22.1989C9.98556 22.1652 9.92559 22.1163 9.87886 22.0558C9.83212 21.9954 9.79986 21.925 9.78455 21.8502C9.76924 21.7753 9.7713 21.6979 9.79055 21.624L10.0996 20.437Z" fill="#FFC248"/>
    </g>
    <defs>
        <filter id="filter0_i_593_26747" x="5.25" y="5.539" width="22.125" height="22.125" filterUnits="userSpaceOnUse" color-interpolation-filters="sRGB">
            <feFlood flood-opacity="0" result="BackgroundImageFix"/>
            <feBlend mode="normal" in="SourceGraphic" in2="BackgroundImageFix" result="shape"/>
            <feColorMatrix in="SourceAlpha" type="matrix" values="0 0 0 0 0 0 0 0 0 0 0 0 0 0 0 0 0 0 127 0" result="hardAlpha"/>
            <feOffset dx="-0.375" dy="0.375"/>
            <feGaussianBlur stdDeviation="0.75"/>
            <feComposite in2="hardAlpha" operator="arithmetic" k2="-1" k3="1"/>
            <feColorMatrix type="matrix" values="0 0 0 0 0.831373 0 0 0 0 0.45098 0 0 0 0 0.196078 0 0 0 1 0"/>
            <feBlend mode="normal" in2="shape" result="effect1_innerShadow_593_26747"/>
        </filter>
        <filter id="filter1_iiii_593_26747" x="2.08076" y="1.99501" width="28.838" height="28.838" filterUnits="userSpaceOnUse" color-interpolation-filters="sRGB">
            <feFlood flood-opacity="0" result="BackgroundImageFix"/>
            <feBlend mode="normal" in="SourceGraphic" in2="BackgroundImageFix" result="shape"/>
            <feColorMatrix in="SourceAlpha" type="matrix" values="0 0 0 0 0 0 0 0 0 0 0 0 0 0 0 0 0 0 127 0" result="hardAlpha"/>
            <feOffset dx="0.45" dy="0.45"/>
            <feGaussianBlur stdDeviation="0.45"/>
            <feComposite in2="hardAlpha" operator="arithmetic" k2="-1" k3="1"/>
            <feColorMatrix type="matrix" values="0 0 0 0 0.886275 0 0 0 0 0.662745 0 0 0 0 0.235294 0 0 0 1 0"/>
            <feBlend mode="normal" in2="shape" result="effect1_innerShadow_593_26747"/>
            <feColorMatrix in="SourceAlpha" type="matrix" values="0 0 0 0 0 0 0 0 0 0 0 0 0 0 0 0 0 0 127 0" result="hardAlpha"/>
            <feOffset dx="0.45" dy="-0.45"/>
            <feGaussianBlur stdDeviation="0.45"/>
            <feComposite in2="hardAlpha" operator="arithmetic" k2="-1" k3="1"/>
            <feColorMatrix type="matrix" values="0 0 0 0 0.956863 0 0 0 0 0.607843 0 0 0 0 0.294118 0 0 0 1 0"/>
            <feBlend mode="normal" in2="effect1_innerShadow_593_26747" result="effect2_innerShadow_593_26747"/>
            <feColorMatrix in="SourceAlpha" type="matrix" values="0 0 0 0 0 0 0 0 0 0 0 0 0 0 0 0 0 0 127 0" result="hardAlpha"/>
            <feOffset dy="-0.45"/>
            <feGaussianBlur stdDeviation="0.45"/>
            <feComposite in2="hardAlpha" operator="arithmetic" k2="-1" k3="1"/>
            <feColorMatrix type="matrix" values="0 0 0 0 0.956863 0 0 0 0 0.607843 0 0 0 0 0.294118 0 0 0 1 0"/>
            <feBlend mode="normal" in2="effect2_innerShadow_593_26747" result="effect3_innerShadow_593_26747"/>
            <feColorMatrix in="SourceAlpha" type="matrix" values="0 0 0 0 0 0 0 0 0 0 0 0 0 0 0 0 0 0 127 0" result="hardAlpha"/>
            <feOffset dx="-0.45" dy="0.45"/>
            <feGaussianBlur stdDeviation="0.45"/>
            <feComposite in2="hardAlpha" operator="arithmetic" k2="-1" k3="1"/>
            <feColorMatrix type="matrix" values="0 0 0 0 1 0 0 0 0 0.882353 0 0 0 0 0.337255 0 0 0 1 0"/>
            <feBlend mode="normal" in2="effect3_innerShadow_593_26747" result="effect4_innerShadow_593_26747"/>
        </filter>
        <filter id="filter2_f_593_26747" x="8.56143" y="6.87254" width="15.2507" height="16.5585" filterUnits="userSpaceOnUse" color-interpolation-filters="sRGB">
            <feFlood flood-opacity="0" result="BackgroundImageFix"/>
            <feBlend mode="normal" in="SourceGraphic" in2="BackgroundImageFix" result="shape"/>
            <feGaussianBlur stdDeviation="0.45" result="effect1_foregroundBlur_593_26747"/>
        </filter>
        <filter id="filter3_ii_593_26747" x="10.4478" y="7.11586" width="12.35" height="5.57915" filterUnits="userSpaceOnUse" color-interpolation-filters="sRGB">
            <feFlood flood-opacity="0" result="BackgroundImageFix"/>
            <feBlend mode="normal" in="SourceGraphic" in2="BackgroundImageFix" result="shape"/>
            <feColorMatrix in="SourceAlpha" type="matrix" values="0 0 0 0 0 0 0 0 0 0 0 0 0 0 0 0 0 0 127 0" result="hardAlpha"/>
            <feOffset dy="-0.375"/>
            <feGaussianBlur stdDeviation="0.375"/>
            <feComposite in2="hardAlpha" operator="arithmetic" k2="-1" k3="1"/>
            <feColorMatrix type="matrix" values="0 0 0 0 0.980392 0 0 0 0 0.647059 0 0 0 0 0.172549 0 0 0 1 0"/>
            <feBlend mode="normal" in2="shape" result="effect1_innerShadow_593_26747"/>
            <feColorMatrix in="SourceAlpha" type="matrix" values="0 0 0 0 0 0 0 0 0 0 0 0 0 0 0 0 0 0 127 0" result="hardAlpha"/>
            <feOffset dx="0.225" dy="0.375"/>
            <feGaussianBlur stdDeviation="0.375"/>
            <feComposite in2="hardAlpha" operator="arithmetic" k2="-1" k3="1"/>
            <feColorMatrix type="matrix" values="0 0 0 0 0.980392 0 0 0 0 0.647059 0 0 0 0 0.172549 0 0 0 1 0"/>
            <feBlend mode="normal" in2="effect1_innerShadow_593_26747" result="effect2_innerShadow_593_26747"/>
        </filter>
        <filter id="filter4_ii_593_26747" x="9.39941" y="19.539" width="14.2012" height="3.086" filterUnits="userSpaceOnUse" color-interpolation-filters="sRGB">
            <feFlood flood-opacity="0" result="BackgroundImageFix"/>
            <feBlend mode="normal" in="SourceGraphic" in2="BackgroundImageFix" result="shape"/>
            <feColorMatrix in="SourceAlpha" type="matrix" values="0 0 0 0 0 0 0 0 0 0 0 0 0 0 0 0 0 0 127 0" result="hardAlpha"/>
            <feOffset dx="0.375" dy="-0.375"/>
            <feGaussianBlur stdDeviation="0.3"/>
            <feComposite in2="hardAlpha" operator="arithmetic" k2="-1" k3="1"/>
            <feColorMatrix type="matrix" values="0 0 0 0 0.992157 0 0 0 0 0.658824 0 0 0 0 0.0705882 0 0 0 1 0"/>
            <feBlend mode="normal" in2="shape" result="effect1_innerShadow_593_26747"/>
            <feColorMatrix in="SourceAlpha" type="matrix" values="0 0 0 0 0 0 0 0 0 0 0 0 0 0 0 0 0 0 127 0" result="hardAlpha"/>
            <feOffset dx="-0.375" dy="0.375"/>
            <feGaussianBlur stdDeviation="0.3"/>
            <feComposite in2="hardAlpha" operator="arithmetic" k2="-1" k3="1"/>
            <feColorMatrix type="matrix" values="0 0 0 0 1 0 0 0 0 0.8 0 0 0 0 0.290196 0 0 0 1 0"/>
            <feBlend mode="normal" in2="effect1_innerShadow_593_26747" result="effect2_innerShadow_593_26747"/>
        </filter>
        <linearGradient id="paint0_linear_593_26747" x1="12.063" y1="21.852" x2="23.813" y2="7.039" gradientUnits="userSpaceOnUse">
            <stop stop-color="#F19D48"/>
            <stop offset="1" stop-color="#E89A44"/>
        </linearGradient>
        <linearGradient id="paint1_linear_593_26747" x1="16.4998" y1="2.44501" x2="16.4998" y2="30.383" gradientUnits="userSpaceOnUse">
            <stop stop-color="#FFC444"/>
            <stop offset="1" stop-color="#FFC24B"/>
        </linearGradient>
        <linearGradient id="paint2_linear_593_26747" x1="19.8128" y1="9.28901" x2="19.4058" y2="9.90601" gradientUnits="userSpaceOnUse">
            <stop offset="0.459" stop-color="#FFCA3F"/>
            <stop offset="1" stop-color="#FFCA3F" stop-opacity="0"/>
        </linearGradient>
        <linearGradient id="paint3_linear_593_26747" x1="11.0308" y1="15.059" x2="11.8128" y2="15.059" gradientUnits="userSpaceOnUse">
            <stop offset="0.167" stop-color="#FFB33B"/>
            <stop offset="1" stop-color="#FFC047"/>
        </linearGradient>
        <linearGradient id="paint4_linear_593_26747" x1="12.4948" y1="16.686" x2="12.1088" y2="16.686" gradientUnits="userSpaceOnUse">
            <stop offset="0.067" stop-color="#FFC34C"/>
            <stop offset="1" stop-color="#FFC34C" stop-opacity="0"/>
        </linearGradient>
        <linearGradient id="paint5_linear_593_26747" x1="14.25" y1="15.059" x2="15.031" y2="15.059" gradientUnits="userSpaceOnUse">
            <stop offset="0.167" stop-color="#FFB33B"/>
            <stop offset="1" stop-color="#FFC047"/>
        </linearGradient>
        <linearGradient id="paint6_linear_593_26747" x1="15.713" y1="16.686" x2="15.328" y2="16.686" gradientUnits="userSpaceOnUse">
            <stop offset="0.067" stop-color="#FFC34C"/>
            <stop offset="1" stop-color="#FFC34C" stop-opacity="0"/>
        </linearGradient>
        <linearGradient id="paint7_linear_593_26747" x1="17.4688" y1="15.059" x2="18.2498" y2="15.059" gradientUnits="userSpaceOnUse">
            <stop offset="0.167" stop-color="#FFB33B"/>
            <stop offset="1" stop-color="#FFC047"/>
        </linearGradient>
        <linearGradient id="paint8_linear_593_26747" x1="18.9318" y1="16.686" x2="18.5468" y2="16.686" gradientUnits="userSpaceOnUse">
            <stop offset="0.067" stop-color="#FFC34C"/>
            <stop offset="1" stop-color="#FFC34C" stop-opacity="0"/>
        </linearGradient>
        <linearGradient id="paint9_linear_593_26747" x1="20.6875" y1="15.059" x2="21.4685" y2="15.059" gradientUnits="userSpaceOnUse">
            <stop offset="0.167" stop-color="#FFB33B"/>
            <stop offset="1" stop-color="#FFC047"/>
        </linearGradient>
        <linearGradient id="paint10_linear_593_26747" x1="22.1505" y1="16.686" x2="21.7655" y2="16.686" gradientUnits="userSpaceOnUse">
            <stop offset="0.067" stop-color="#FFC34C"/>
            <stop offset="1" stop-color="#FFC34C" stop-opacity="0"/>
        </linearGradient>
    </defs>
</svg>
