<svg width="56" height="56" viewBox="0 0 56 56" fill="none" xmlns="http://www.w3.org/2000/svg">
    <path d="M27.9998 23.3333C33.1544 23.3333 37.3332 19.1546 37.3332 14C37.3332 8.84533 33.1544 4.66666 27.9998 4.66666C22.8452 4.66666 18.6665 8.84533 18.6665 14C18.6665 19.1546 22.8452 23.3333 27.9998 23.3333ZM12.8332 30.3333C16.0548 30.3333 18.6665 27.7216 18.6665 24.5C18.6665 21.2783 16.0548 18.6667 12.8332 18.6667C9.61151 18.6667 6.99984 21.2783 6.99984 24.5C6.99984 27.7216 9.61151 30.3333 12.8332 30.3333ZM48.9998 24.5C48.9998 27.7216 46.3881 30.3333 43.1665 30.3333C39.9449 30.3333 37.3332 27.7216 37.3332 24.5C37.3332 21.2783 39.9449 18.6667 43.1665 18.6667C46.3881 18.6667 48.9998 21.2783 48.9998 24.5ZM27.9998 25.6667C34.4431 25.6667 39.6665 30.8901 39.6665 37.3333V51.3333H16.3332V37.3333C16.3332 30.8901 21.5565 25.6667 27.9998 25.6667ZM11.6665 37.3331C11.6665 35.7163 11.9014 34.1544 12.3389 32.6797L11.9433 32.7143C7.85157 33.1576 4.6665 36.6235 4.6665 40.8331V51.3331H11.6665V37.3331ZM51.3332 51.3331V40.8331C51.3332 36.4882 47.9403 32.9357 43.6607 32.6797C44.0982 34.1544 44.3332 35.7163 44.3332 37.3331V51.3331H51.3332Z" fill="#FCFCFC"/>
</svg>
