<svg width="21" height="19" viewBox="0 0 21 19" fill="none" xmlns="http://www.w3.org/2000/svg">
    <path d="M18.5049 11.0028V18.0028C18.5049 18.5551 18.0572 19.0028 17.5049 19.0028H3.50488C2.9526 19.0028 2.50488 18.5551 2.50488 18.0028V11.0028H18.5049ZM13.0049 0.00280762C14.9379 0.00280762 16.5049 1.56981 16.5049 3.50281C16.5049 4.04001 16.3839 4.54895 16.1676 5.00385L19.5049 5.00281C20.0572 5.00281 20.5049 5.45052 20.5049 6.00281V9.0028C20.5049 9.5551 20.0572 10.0028 19.5049 10.0028H1.50488C0.952603 10.0028 0.504883 9.5551 0.504883 9.0028V6.00281C0.504883 5.45052 0.952603 5.00281 1.50488 5.00281L4.84219 5.00385C4.62591 4.54895 4.50488 4.04001 4.50488 3.50281C4.50488 1.56981 6.07189 0.00280762 8.00488 0.00280762C8.9849 0.00280762 9.8708 0.405568 10.5061 1.05459C11.139 0.405568 12.0249 0.00280762 13.0049 0.00280762ZM8.00488 2.00281C7.17646 2.00281 6.50488 2.67438 6.50488 3.50281C6.50488 4.2825 7.09977 4.92326 7.86042 4.99594L8.00488 5.00281H9.5049V3.50281C9.5049 2.72311 8.91 2.08236 8.14934 2.00967L8.00488 2.00281ZM13.0049 2.00281L12.8604 2.00967C12.1473 2.07782 11.5799 2.64524 11.5117 3.35835L11.5049 3.50281V5.00281H13.0049L13.1493 4.99594C13.91 4.92326 14.5049 4.2825 14.5049 3.50281C14.5049 2.72311 13.91 2.08236 13.1493 2.00967L13.0049 2.00281Z" fill="#FCFCFC"/>
</svg>
