<svg width="56" height="56" viewBox="0 0 56 56" fill="none" xmlns="http://www.w3.org/2000/svg">
    <path d="M41.9999 9.33337C38.0099 9.33337 35.5832 10.1034 34.1833 10.7567C32.3866 9.87004 30.3333 9.33337 27.9999 9.33337C25.6666 9.33337 23.6133 9.87004 21.8166 10.7567C20.4166 10.1034 17.9899 9.33337 13.9999 9.33337C6.99992 9.33337 2.33325 28 2.33325 32.6667C2.33325 34.6034 5.41325 36.3767 9.65992 37.1C11.1533 42.3267 18.1999 46.3167 26.8333 46.6667V36.68C25.4566 35.8167 23.3333 34.2534 23.3333 32.6667C23.3333 30.3334 27.9999 30.3334 27.9999 30.3334C27.9999 30.3334 32.6666 30.3334 32.6666 32.6667C32.6666 34.2534 30.5433 35.8167 29.1666 36.68V46.6667C37.7999 46.3167 44.8466 42.3267 46.3399 37.1C50.5866 36.3767 53.6666 34.6034 53.6666 32.6667C53.6666 28 48.9999 9.33337 41.9999 9.33337ZM9.68325 32.3634C8.51659 32.0834 7.60659 31.7567 6.99992 31.5C7.58325 25.0367 12.1333 14.9334 14.1166 14C15.3766 14 16.3333 14.14 17.1966 14.2567C12.2966 19.6467 10.3599 28.0934 9.68325 32.3634ZM20.9999 28C20.3811 28 19.7876 27.7542 19.35 27.3166C18.9124 26.879 18.6666 26.2855 18.6666 25.6667C18.6666 24.4067 19.7166 23.3334 20.9999 23.3334C21.6188 23.3334 22.2122 23.5792 22.6498 24.0168C23.0874 24.4544 23.3333 25.0479 23.3333 25.6667C23.3333 26.9734 22.2833 28 20.9999 28ZM34.9999 28C34.3811 28 33.7876 27.7542 33.35 27.3166C32.9124 26.879 32.6666 26.2855 32.6666 25.6667C32.6666 24.4067 33.7166 23.3334 34.9999 23.3334C35.6188 23.3334 36.2122 23.5792 36.6498 24.0168C37.0874 24.4544 37.3333 25.0479 37.3333 25.6667C37.3333 26.9734 36.2833 28 34.9999 28ZM46.3166 32.3634C45.6399 28.0934 43.7032 19.6467 38.8032 14.2567C39.6666 14.14 40.6233 14 41.8833 14C43.8666 14.9334 48.4166 25.0367 48.9999 31.5C48.4166 31.7567 47.5066 32.0834 46.3166 32.3634Z" fill="#FCFCFC"/>
</svg>
